<?xml version="1.0" standalone="no"?>
<!-- Generator: Paintmaps.com , Online SVG vector map maker -->
<svg xmlns="http://www.w3.org/2000/svg" version="1.1" baseProfile="full" width="800" height="533" style="background-color:false">
<path d="M 498.571 281.6004 L 497.7321 281.1761 L 496.4014 281.9861 L 494.4343 281.4847 L 490.5868 282.2175 L 489.4586 281.099 L 488.4461 281.1761 L 487.694 280.2119 L 487.6362 277.6276 L 486.1319 274.2334 L 484.1648 274.9277 L 482.6895 274.7348 L 481.9084 277.7819 L 481.1852 278.5533 L 479.8545 277.6276 L 478.6685 275.5448 L 477.3667 274.5034 L 474.5028 274.0405 L 472.8539 272.8063 L 469.7586 272.8834 L 468.7172 276.0076 L 463.5969 281.7933 L 462.9605 280.7904 L 462.6134 278.0905 L 460.1545 277.3576 L 457.6377 273.1148 L 455.7574 273.3077 L 455.2656 277.2033 L 453.2696 284.1075 L 451.7943 284.6089 L 449.6536 282.6032 L 447.5129 285.4575 L 446.1244 288.4274 L 445.6904 291.0888 L 447.5708 292.0145 L 448.3518 293.6731 L 449.075 297.5687 L 450.2321 298.4944 L 450.5793 301.8115 L 450.2611 304.3572 L 447.3683 305.2057 L 445.5458 309.1399 L 444.9962 312.3799 L 444.0994 311.8785 L 438.2559 312.2642 L 438.1113 312.8813 L 440.628 317.8184 L 440.8594 319.6698 L 440.6859 324.3368 L 441.3223 329.8525 L 440.4255 332.0896 L 445.7483 335.6381 L 454.8606 338.338 L 455.2367 337.8752 L 455.2367 333.3238 L 457.2327 333.2081 L 456.9145 330.8553 L 458.1584 331.8196 L 458.5634 331.4339 L 458.3609 330.161 L 460.733 326.0339 L 464.1466 326.9596 L 466.5765 329.4667 L 468.0808 329.1196 L 469.9611 326.6897 L 470.424 326.7668 L 470.6554 328.0782 L 471.6968 327.3839 L 471.9861 328.7339 L 471.4364 329.5053 L 471.9282 331.7424 L 472.3911 331.8196 L 471.61 333.2853 L 473.3168 337.2966 L 472.6514 339.688 L 472.8539 340.9994 L 473.23 341.3465 L 474.7342 339.6494 L 474.6185 341.6165 L 475.1103 342.658 L 476.2096 341.578 L 476.6724 340.228 L 476.0071 334.0181 L 476.3542 333.5167 L 476.5567 335.4838 L 477.3378 335.9852 L 478.3502 334.0567 L 481.4166 333.2081 L 481.3588 332.591 L 478.6395 330.8939 L 477.3088 329.1968 L 476.8171 328.0782 L 477.1063 327.5768 L 481.4456 328.3482 L 484.8591 327.8468 L 486.5658 329.3125 L 488.5619 329.6596 L 490.124 331.3567 L 491.0207 329.0425 L 491.4547 319.8626 L 493.4507 312.4185 L 493.335 310.4899 L 495.8517 303.47 L 497.2403 297.8001 L 498.0792 283.9147 L 498.571 281.6004 Z" fill="#000000" fill-opacity="1" stroke="#000000" stroke-width="0" paint-order="fill" stroke-opacity="1" stroke-dasharray="" stroke-linecap="butt" stroke-linejoin="miter" stroke-miterlimit="10" transform="matrix(0.8500000238418579,0,0,0.8500000238418579,59.999778747558594,39.974998474121094)" clip-path="none" style="filter: url(#f1)"/>
<path d="M 384.3629 375.096 L 383.119 375.366 L 381.8462 374.4789 L 381.1808 376.0988 L 380.0237 376.4845 L 379.0112 375.9831 L 378.5194 374.9803 L 377.4202 374.7488 L 377.3623 378.0659 L 373.1388 378.7602 L 370.651 382.6944 L 369.7542 383.3501 L 370.9981 386.2044 L 371.9238 386.0887 L 372.5602 386.7829 L 373.6016 386.1272 L 377.0152 389.4443 L 377.9119 389.29 L 378.0566 387.9401 L 380.9494 386.7058 L 383.0901 388.8658 L 383.929 390.91 L 384.9993 391.0643 L 385.4043 394.9214 L 385.0861 400.7841 L 383.8133 405.644 L 385.0572 407.3412 L 386.2721 412.0854 L 386.4746 413.9368 L 385.925 415.711 L 387.2268 422.6538 L 384.8836 425.3923 L 384.5943 427.2051 L 385.4622 426.7808 L 388.0946 428.0922 L 393.1281 425.238 L 393.7645 425.5466 L 393.9959 426.4723 L 394.4009 425.8551 L 395.2688 427.8608 L 396.3102 428.8251 L 399.5212 428.0922 L 402.2405 426.7037 L 403.4554 427.668 L 406.6375 427.8994 L 406.5507 423.6566 L 407.245 420.7252 L 407.3897 414.8625 L 409.1832 414.9782 L 411.1214 412.6254 L 411.7578 408.0354 L 413.291 406.184 L 411.1214 398.3156 L 407.4186 394.9985 L 406.2615 393.1857 L 405.0465 388.7115 L 403.1372 388.5572 L 400.3601 385.3558 L 399.5212 385.3944 L 398.2773 384.3915 L 397.0623 379.9945 L 396.0209 379.8788 L 393.3306 377.7574 L 384.3629 375.096 Z" fill="#000000" fill-opacity="1" stroke="#000000" stroke-width="0" paint-order="fill" stroke-opacity="1" stroke-dasharray="" stroke-linecap="butt" stroke-linejoin="miter" stroke-miterlimit="10" transform="matrix(0.8500000238418579,0,0,0.8500000238418579,59.999778747558594,39.974998474121094)" clip-path="none" style="filter: url(#f1)"/>
<path d="M 497.2403 297.8001 L 496.4592 300.8858 L 498.7445 300.2301 L 523.7384 300.0372 L 525.2137 289.7388 L 527.2966 282.4875 L 530.2183 279.9419 L 530.9994 278.4376 L 530.9704 276.7019 L 532.4458 270.4149 L 531.6358 266.9821 L 531.954 264.0121 L 533.1979 260.965 L 533.6318 258.0337 L 534.9336 257.0694 L 535.9171 255.1023 L 537.3057 247.1181 L 539.5621 238.9797 L 542.1945 233.3484 L 545.0006 230.9184 L 544.7402 227.6399 L 545.608 227.3699 L 547.3148 228.1027 L 549.629 226.7913 L 550.2655 225.5956 L 550.1208 224.0528 L 548.9637 221.43 L 542.3102 221.0443 L 542.8309 218.4215 L 542.3102 216.0686 L 538.8678 214.2558 L 537.6817 212.6358 L 536.9585 206.156 L 537.5371 201.7589 L 536.7271 195.549 L 528.9455 182.8206 L 528.2512 177.575 L 528.5983 174.9908 L 526.1394 172.3294 L 522.4656 169.5523 L 522.2052 168.1637 L 522.9863 166.6595 L 523.1598 164.8081 L 521.5977 162.8024 L 522.0895 159.1767 L 523.1309 157.6339 L 524.2013 154.2397 L 523.9988 152.8511 L 526.5444 151.1154 L 527.9619 148.6469 L 527.5569 147.4898 L 527.8751 145.7155 L 527.3544 142.5527 L 525.532 138.9657 L 523.7963 133.72 L 522.4077 132.2929 L 521.5109 129.7087 L 521.5399 126.8159 L 522.0606 125.9673 L 521.2795 121.6474 L 518.8496 120.2974 L 517.866 118.0603 L 518.0974 111.9661 L 518.8206 109.8833 L 518.7917 107.2605 L 517.8082 106.7976 L 515.6675 106.9133 L 512.1382 109.0347 L 507.1048 113.9718 L 505.4559 117.7517 L 501.3191 122.6888 L 501.2324 130.4029 L 499.8149 134.5686 L 496.6039 139.1199 L 492.12 141.7042 L 491.4547 142.7842 L 490.2108 150.884 L 491.9175 160.0639 L 486.7683 169.128 L 479.9991 172.6379 L 479.3049 176.0322 L 477.3667 178.0379 L 476.036 180.815 L 474.8499 182.0492 L 471.0604 183.5535 L 470.0479 186.6777 L 467.9072 190.3034 L 466.3451 191.4219 L 467.7626 194.199 L 468.4568 197.8632 L 467.3286 204.4203 L 467.6758 206.156 L 470.1925 209.7816 L 473.9242 211.8259 L 474.7053 213.9858 L 475.2549 218.3058 L 477.9742 223.3585 L 478.842 223.7828 L 480.3174 222.1628 L 482.863 222.4714 L 486.6526 224.7085 L 487.7808 226.4056 L 488.7065 226.7913 L 491.7729 224.2842 L 494.4053 220.5429 L 495.1575 220.08 L 495.765 221.0443 L 496.6617 226.8685 L 495.2732 238.9411 L 496.7774 238.3626 L 497.2981 238.864 L 496.3724 243.0682 L 494.2318 245.0353 L 493.3639 251.0909 L 495.0707 255.9123 L 498.2238 258.2651 L 499.6702 262.6622 L 502.4184 264.6293 L 501.1166 268.1006 L 497.8478 273.1534 L 497.5296 274.3877 L 498.542 281.9475 L 498.0792 283.9147 L 497.2403 297.8001 Z" fill="#000000" fill-opacity="1" stroke="#000000" stroke-width="0" paint-order="fill" stroke-opacity="1" stroke-dasharray="" stroke-linecap="butt" stroke-linejoin="miter" stroke-miterlimit="10" transform="matrix(0.8500000238418579,0,0,0.8500000238418579,59.999778747558594,39.974998474121094)" clip-path="none" style="filter: url(#f1)"/>
<path d="M 413.291 406.184 L 413.6381 408.4211 L 415.9524 410.6582 L 417.8905 411.7768 L 419.5394 410.3497 L 418.7005 407.9969 L 419.0477 403.9469 L 418.5559 400.8998 L 418.9609 398.1227 L 418.5848 395.8085 L 418.9898 395.2685 L 419.9734 395.8856 L 421.1594 398.5856 L 421.738 398.5084 L 422.114 397.6213 L 422.0273 395.6156 L 420.8123 393.9571 L 420.6966 392.1057 L 418.6427 387.6315 L 417.5145 383.3887 L 419.337 381.7302 L 421.9694 380.843 L 423.4447 380.9202 L 427.2054 382.5787 L 429.4039 382.5787 L 430.7925 381.7302 L 431.5446 380.2259 L 430.3586 376.9474 L 428.97 369.0018 L 427.379 363.0619 L 426.6558 361.3262 L 419.0766 361.5191 L 417.6881 358.9348 L 417.7748 356.9677 L 416.9359 355.5406 L 416.7045 351.5678 L 414.8531 351.2978 L 413.4067 349.5621 L 410.6296 351.1821 L 408.1418 351.375 L 408.2286 353.4192 L 406.6375 354.962 L 405.6829 354.5763 L 404.2654 352.7249 L 401.3726 353.3035 L 398.6244 352.4549 L 397.178 353.1492 L 396.1945 351.9921 L 394.8059 354.0363 L 396.9755 356.2349 L 397.0045 359.5905 L 397.4384 360.7862 L 396.8598 361.8662 L 397.7855 363.1776 L 397.0623 365.6461 L 392.1156 367.1118 L 390.4667 365.9933 L 388.9914 368.0375 L 388.8178 370.5832 L 387.8921 370.2746 L 387.1111 371.5475 L 384.305 371.9717 L 384.1604 373.5532 L 383.4661 374.1317 L 384.739 375.4431 L 393.3306 377.7574 L 396.0209 379.8788 L 397.0623 379.9945 L 398.2773 384.3915 L 399.5212 385.3944 L 400.3601 385.3558 L 403.1372 388.5572 L 405.0465 388.7115 L 406.2615 393.1857 L 407.4186 394.9985 L 410.9189 397.9685 L 413.291 406.184 Z" fill="#000000" fill-opacity="1" stroke="#000000" stroke-width="0" paint-order="fill" stroke-opacity="1" stroke-dasharray="" stroke-linecap="butt" stroke-linejoin="miter" stroke-miterlimit="10" transform="matrix(0.8500000238418579,0,0,0.8500000238418579,59.999778747558594,39.974998474121094)" clip-path="none" style="filter: url(#f1)"/>
<path d="M 498.571 281.6004 L 497.7899 277.6276 L 497.6742 273.732 L 501.1166 268.1006 L 502.4184 264.6293 L 499.6702 262.6622 L 498.2238 258.2651 L 495.0707 255.9123 L 493.3639 251.0909 L 494.2318 245.0353 L 496.3724 243.0682 L 497.2981 238.864 L 496.7774 238.3626 L 495.2732 238.9411 L 496.6617 226.8685 L 495.3889 220.1957 L 494.2896 220.6586 L 491.7729 224.2842 L 488.8511 226.7528 L 487.7808 226.4056 L 486.6526 224.7085 L 482.863 222.4714 L 480.3174 222.1628 L 478.437 223.7442 L 475.2549 218.3058 L 474.7053 213.9858 L 473.9242 211.8259 L 470.1925 209.7816 L 467.6758 206.156 L 467.3286 204.4203 L 468.4568 197.8632 L 467.7626 194.199 L 466.3451 191.4219 L 462.6134 192.9647 L 458.9684 195.7804 L 457.0302 195.7418 L 454.4556 194.739 L 454.7739 198.9818 L 455.9021 201.2575 L 456.8567 205.2303 L 454.8896 207.9688 L 454.716 211.363 L 453.2407 213.9858 L 453.125 215.2972 L 454.8896 218.1129 L 459.0552 219.7329 L 460.0677 223.0114 L 460.1256 224.9014 L 459.4023 226.5985 L 457.2327 226.7913 L 454.1953 230.957 L 452.315 231.6512 L 451.3893 233.8112 L 448.0625 234.3512 L 445.8929 232.8469 L 443.2315 233.3484 L 442.7108 234.8526 L 443.5208 240.5997 L 441.5248 241.8339 L 437.7063 247.8124 L 436.2888 251.978 L 437.9666 253.8294 L 438.4006 257.4165 L 439.0659 258.3037 L 440.5412 258.1108 L 442.0455 259.4222 L 443.434 259.7693 L 445.4879 262.2764 L 446.1822 264.4364 L 445.7194 266.2878 L 441.1487 267.0592 L 440.7727 269.0649 L 441.7851 271.2634 L 441.0619 273.7705 L 440.9173 277.7819 L 441.3223 278.1676 L 443.868 276.8562 L 445.7483 277.7819 L 446.674 277.2419 L 446.4136 279.209 L 447.889 282.7961 L 449.104 283.259 L 449.6536 282.6032 L 452.315 284.7246 L 453.7903 282.989 L 455.2656 277.2033 L 455.4971 273.8862 L 456.1913 273.0377 L 457.1749 272.8063 L 458.0717 273.5005 L 460.1545 277.3576 L 462.6134 278.0905 L 462.9605 280.7904 L 463.5969 281.7933 L 468.7172 276.0076 L 469.7586 272.8834 L 472.8539 272.8063 L 474.5028 274.0405 L 477.3667 274.5034 L 478.6685 275.5448 L 479.8545 277.6276 L 481.1852 278.5533 L 481.9084 277.7819 L 482.6895 274.7348 L 484.1648 274.9277 L 486.1319 274.2334 L 487.6362 277.6276 L 487.694 280.2119 L 488.4461 281.1761 L 489.4586 281.099 L 490.5868 282.2175 L 494.4343 281.4847 L 496.4014 281.9861 L 497.7321 281.1761 L 498.571 281.6004 Z" fill="#000000" fill-opacity="1" stroke="#000000" stroke-width="0" paint-order="fill" stroke-opacity="1" stroke-dasharray="" stroke-linecap="butt" stroke-linejoin="miter" stroke-miterlimit="10" transform="matrix(0.8500000238418579,0,0,0.8500000238418579,59.999778747558594,39.974998474121094)" clip-path="none" style="filter: url(#f1)"/>
<path d="M 518.7917 107.2605 L 519.3703 105.1776 L 519.1099 104.2134 L 521.8002 100.0477 L 521.9449 98.2349 L 522.8416 96.0749 L 523.7673 95.2264 L 524.288 93.4907 L 525.0691 93.2207 L 525.908 91.6393 L 527.1519 90.7136 L 527.6148 89.0551 L 527.4412 86.9722 L 524.8088 86.548 L 521.5399 88.6694 L 516.7378 89.7493 L 512.7168 93.2593 L 512.0225 94.8792 L 508.9562 94.7635 L 507.9147 95.6892 L 506.0634 96.1907 L 499.6992 105.7562 L 496.546 107.8776 L 493.9714 107.6462 L 492.7564 108.5719 L 491.5993 109.729 L 489.0826 114.8203 L 487.5204 116.4403 L 487.694 114.0104 L 488.6486 110.6933 L 487.8676 104.9077 L 488.8511 102.7091 L 486.1608 104.2905 L 485.6691 103.7505 L 485.6112 102.2848 L 484.9748 102.0148 L 481.6191 105.5634 L 480.7802 104.2519 L 479.4784 104.9462 L 478.9288 103.2105 L 477.3088 109.3047 L 477.251 113.6246 L 476.6435 115.0903 L 475.9781 115.476 L 474.6185 111.4647 L 472.8828 109.1504 L 473.7796 105.8334 L 473.5482 101.1277 L 473.0275 100.1249 L 471.2629 99.4306 L 470.8289 98.6206 L 471.0025 97.0778 L 472.0439 95.265 L 469.18 93.0279 L 468.3701 89.0551 L 463.1051 85.6994 L 460.762 83.308 L 459.2288 80.1838 L 459.0263 78.2552 L 457.9559 77.0595 L 458.1584 75.5939 L 457.551 74.2825 L 457.7534 71.7753 L 450.5214 73.5882 L 435.9995 72.8553 L 434.8424 80.4538 L 435.1895 81.7266 L 438.1402 83.6552 L 444.0994 84.7737 L 445.054 85.5065 L 446.1533 87.5508 L 447.3393 92.6807 L 448.4965 94.6093 L 451.6207 97.6949 L 452.5753 101.822 L 451.2736 104.5219 L 447.0211 107.569 L 444.0705 112.6218 L 442.5662 118.0989 L 438.1402 120.6445 L 437.3302 121.6088 L 435.5078 127.5101 L 434.1192 129.8629 L 429.5775 131.9458 L 428.4782 135.0314 L 428.5361 138.2328 L 431.1685 140.2385 L 432.8464 142.8999 L 433.4249 147.2969 L 436.6938 158.7525 L 442.3637 161.4138 L 445.1697 166.1195 L 448.9882 168.0866 L 448.9015 169.4751 L 447.2526 171.1723 L 444.3019 178.5007 L 444.7358 181.1235 L 449.2197 181.9335 L 450.3768 184.132 L 451.0132 189.5319 L 451.7653 190.4962 L 452.3439 192.6562 L 454.8028 195.0476 L 459.0841 195.7418 L 462.6134 192.9647 L 467.7047 190.5734 L 469.9611 186.8706 L 471.0604 183.5535 L 474.8499 182.0492 L 476.036 180.815 L 477.3667 178.0379 L 479.3049 176.0322 L 479.6231 173.3322 L 480.867 171.7894 L 486.3923 169.7066 L 491.9175 160.0639 L 490.2108 150.884 L 491.4547 142.7842 L 492.12 141.7042 L 496.6039 139.1199 L 499.8149 134.5686 L 501.2324 130.4029 L 501.3191 122.6888 L 505.4559 117.7517 L 507.1048 113.9718 L 512.1382 109.0347 L 515.7543 106.8748 L 518.7917 107.2605 Z" fill="#000000" fill-opacity="1" stroke="#000000" stroke-width="0" paint-order="fill" stroke-opacity="1" stroke-dasharray="" stroke-linecap="butt" stroke-linejoin="miter" stroke-miterlimit="10" transform="matrix(0.8500000238418579,0,0,0.8500000238418579,59.999778747558594,39.974998474121094)" clip-path="none" style="filter: url(#f1)"/>
<path d="M 454.4556 337.9909 L 454.8317 342.658 L 454.4267 346.2065 L 455.1788 347.055 L 453.6167 354.2678 L 453.7903 358.3563 L 452.286 362.5219 L 453.2407 365.5304 L 449.3064 365.1447 L 447.5418 364.0647 L 446.5872 364.2576 L 445.3722 365.5304 L 444.4176 365.4147 L 441.2355 360.1305 L 436.4334 357.8163 L 433.6853 354.8849 L 433.3671 352.9949 L 433.6564 349.6778 L 432.6149 343.8922 L 433.1646 342.118 L 432.9332 340.8837 L 427.5236 343.4294 L 426.8872 344.4322 L 426.7425 347.6336 L 422.8951 349.6778 L 420.9859 355.6949 L 417.6881 356.3506 L 417.8616 359.5905 L 419.5105 361.7891 L 422.0851 361.0948 L 423.5315 361.7119 L 426.6558 361.3262 L 428.97 369.0018 L 430.3586 376.9474 L 431.5446 380.2259 L 430.7925 381.7302 L 429.4039 382.5787 L 427.2054 382.5787 L 423.4447 380.9202 L 421.9694 380.843 L 419.337 381.7302 L 417.5145 383.3887 L 418.6427 387.6315 L 420.6966 392.1057 L 420.8123 393.9571 L 421.9116 395.3071 L 422.1719 396.8113 L 421.738 398.5084 L 421.1594 398.5856 L 419.9734 395.8856 L 418.9898 395.2685 L 418.5848 395.8085 L 418.9609 398.1227 L 418.5559 400.8998 L 419.0477 403.9469 L 418.7005 407.5726 L 419.1634 409.8483 L 421.738 412.0854 L 426.974 412.0082 L 425.5565 416.2124 L 424.0812 417.601 L 423.3869 420.9181 L 419.6841 421.3424 L 419.7419 424.428 L 420.5519 426.0094 L 420.6966 428.4008 L 421.9983 428.5551 L 423.6472 430.6379 L 424.1969 428.9408 L 425.2672 428.2465 L 426.569 426.2023 L 427.379 428.1694 L 428.97 427.3594 L 430.0114 427.938 L 431.4 426.4723 L 432.0942 424.5052 L 433.8299 424.1966 L 433.5406 428.4008 L 434.3506 430.3679 L 436.5492 430.0208 L 437.3881 430.9079 L 440.7437 431.525 L 441.1777 434.8421 L 442.7108 438.6992 L 443.6944 440.3192 L 445.3722 440.4349 L 445.6904 443.9448 L 446.5872 446.8762 L 449.5379 443.2506 L 452.8646 441.0906 L 453.1828 437.2721 L 452.5175 428.9408 L 453.5589 428.3237 L 454.6581 421.6123 L 453.9928 420.3009 L 453.8771 414.5539 L 453.2985 412.3939 L 455.3524 411.4297 L 456.3649 412.9339 L 457.0302 411.3139 L 457.146 408.6526 L 455.2367 402.9055 L 456.5963 396.8113 L 456.3649 393.9571 L 454.9764 390.0614 L 455.0921 388.5186 L 454.1664 386.0115 L 451.6786 383.5044 L 456.1045 380.8816 L 455.6417 378.1431 L 456.1335 375.4045 L 458.3031 372.5889 L 458.4767 370.4289 L 455.7285 365.8004 L 462.4109 366.109 L 475.0814 368.4232 L 477.3088 366.7261 L 476.9617 363.5633 L 477.2221 359.6677 L 476.5567 353.8821 L 477.3378 349.0221 L 476.5567 345.3965 L 476.9038 342.8122 L 476.2096 341.578 L 475.1103 342.658 L 474.6185 341.6165 L 474.7342 339.6494 L 473.23 341.3465 L 472.8539 340.9994 L 472.6514 339.688 L 473.3168 337.2966 L 471.61 333.2853 L 472.3911 331.8196 L 471.9282 331.7424 L 471.4364 329.5053 L 471.9861 328.7339 L 471.6968 327.3839 L 470.6554 328.0782 L 470.424 326.7668 L 469.9611 326.6897 L 468.0808 329.1196 L 466.5765 329.4667 L 464.1466 326.9596 L 460.733 326.0339 L 458.3609 330.161 L 458.5634 331.4339 L 458.1584 331.8196 L 456.9145 330.8553 L 457.2327 333.2081 L 455.2367 333.3238 L 455.2367 337.8752 L 454.4556 337.9909 Z" fill="#000000" fill-opacity="1" stroke="#000000" stroke-width="0" paint-order="fill" stroke-opacity="1" stroke-dasharray="" stroke-linecap="butt" stroke-linejoin="miter" stroke-miterlimit="10" transform="matrix(0.8500000238418579,0,0,0.8500000238418579,59.999778747558594,39.974998474121094)" clip-path="none" style="filter: url(#f1)"/>
<path d="M 347.1035 192.1548 L 346.2357 189.1077 L 346.6985 187.8734 L 346.0043 184.2092 L 344.5579 182.8978 L 345.1653 180.6992 L 344.1529 180.6992 L 342.88 176.7264 L 343.3429 173.9879 L 343.0536 172.7151 L 342.3015 171.7894 L 338.7722 170.0151 L 336.9208 171.1723 L 335.9373 170.7094 L 335.0984 169.8994 L 333.2759 165.8109 L 332.2634 165.7723 L 332.2634 163.7281 L 332.7841 162.571 L 332.3213 159.2539 L 331.1641 156.8625 L 331.5981 154.124 L 332.4948 152.504 L 331.8006 150.6912 L 331.7427 145.947 L 296.5662 157.9039 L 295.5826 157.3253 L 293.9916 157.4411 L 292.7187 156.2454 L 291.1566 156.7468 L 288.6977 155.2811 L 286.8174 156.2839 L 284.6189 154.2011 L 282.0443 153.5068 L 281.5814 152.2726 L 276.4901 148.7241 L 279.6432 162.6867 L 278.6018 179.3107 L 278.2258 207.0817 L 282.6807 210.5916 L 283.375 212.2116 L 285.1106 212.8673 L 287.8009 217.1872 L 290.6648 218.0743 L 292.1402 217.5343 L 294.0205 218.8843 L 297.1736 218.6915 L 297.8101 218.0743 L 299.864 217.7272 L 300.5293 218.1515 L 301.1368 234.6598 L 305.6785 245.6524 L 306.9513 253.9837 L 308.9763 256.7608 L 320.3161 258.8051 L 321.9072 258.5736 L 325.8992 254.4851 L 329.7177 246.9253 L 330.7881 246.1539 L 332.437 246.2696 L 333.6809 247.1953 L 334.9827 250.4738 L 337.1523 253.0966 L 340.074 261.1193 L 341.5783 263.125 L 341.7518 267.7149 L 342.2147 267.2135 L 343.0247 264.1278 L 342.5618 259.7693 L 342.8511 257.8794 L 345.4546 254.6009 L 348.3474 254.0609 L 348.926 253.4437 L 347.8846 250.9366 L 348.1449 249.6252 L 344.2686 243.9168 L 346.2357 242.3739 L 347.3928 239.3654 L 347.4507 237.2826 L 346.3514 233.1169 L 346.6117 231.3427 L 347.6821 230.8027 L 348.2028 234.4669 L 350.8063 231.0727 L 353.0916 230.5713 L 358.183 223.5514 L 356.6787 220.7743 L 356.5051 218.6529 L 354.5959 215.3358 L 352.8891 213.7158 L 350.8352 210.1673 L 348.2317 208.5088 L 346.0043 205.886 L 346.4671 203.8803 L 345.3968 199.5604 L 346.12 196.899 L 345.9175 195.9347 L 346.5539 195.5104 L 346.5539 194.1219 L 347.1325 193.6976 L 347.1035 192.1548 Z" fill="#000000" fill-opacity="1" stroke="#000000" stroke-width="0" paint-order="fill" stroke-opacity="1" stroke-dasharray="" stroke-linecap="butt" stroke-linejoin="miter" stroke-miterlimit="10" transform="matrix(0.8500000238418579,0,0,0.8500000238418579,59.999778747558594,39.974998474121094)" clip-path="none" style="filter: url(#f1)"/>
<path d="M 428.5361 138.2328 L 422.953 142.977 L 421.4198 146.217 L 418.903 147.2969 L 417.0227 148.8783 L 414.3324 154.0468 L 412.1917 153.854 L 410.9189 154.6254 L 407.8525 152.1954 L 407.4764 151.3854 L 404.5258 149.9969 L 403.9761 148.8012 L 402.9637 148.2998 L 399.3187 144.2113 L 394.6034 141.357 L 393.4174 141.4728 L 387.3714 148.7626 L 386.3589 148.4155 L 386.4746 150.3055 L 385.6936 153.0054 L 385.0861 153.4297 L 384.0447 152.9668 L 382.3958 154.0083 L 380.9783 159.601 L 379.1848 163.8052 L 375.1638 168.048 L 373.862 168.5494 L 373.2545 172.5994 L 374.3538 176.1479 L 373.1677 177.8836 L 374.0066 180.275 L 373.5727 183.2063 L 370.5642 186.6006 L 368.9732 186.9477 L 367.6714 186.2149 L 365.415 187.4491 L 362.1172 194.0062 L 362.0015 196.6675 L 364.1132 199.2518 L 366.1961 199.8689 L 367.9317 202.2603 L 368.5682 202.1832 L 368.4814 203.6489 L 370.3038 205.3845 L 373.052 206.6574 L 373.7752 207.7759 L 376.4945 207.1202 L 376.3498 208.8945 L 377.8541 210.0902 L 377.6227 212.8287 L 379.2716 216.5701 L 379.5608 221.1214 L 380.689 225.3256 L 381.6726 233.9269 L 382.3958 235.4312 L 384.334 236.2797 L 385.8961 235.8555 L 386.6482 234.7369 L 388.4128 234.5441 L 390.756 236.0483 L 391.3346 234.6983 L 392.6653 234.6983 L 395.3266 231.8441 L 398.1616 231.497 L 398.7691 227.8713 L 396.6573 225.2099 L 396.8888 223.32 L 396.0209 221.8928 L 395.5581 219.1543 L 397.3227 218.8072 L 400.3891 216.7244 L 400.5626 215.1815 L 401.5173 213.6773 L 404.4968 213.7544 L 406.5218 212.7901 L 406.9268 211.8644 L 409.27 211.3244 L 413.667 212.0959 L 414.5927 212.8287 L 414.9688 213.9087 L 417.9195 215.9144 L 418.903 219.54 L 421.5066 221.6228 L 429.6643 215.3358 L 433.6564 218.0358 L 434.0324 217.7272 L 433.8589 214.1401 L 436.3177 211.7873 L 436.8384 210.1287 L 436.4913 206.3488 L 435.4499 203.7646 L 435.9127 199.6375 L 435.7102 196.5904 L 439.413 189.2234 L 440.8884 187.2948 L 442.0744 186.6777 L 443.5208 183.9006 L 444.4176 180.9692 L 444.3019 178.5007 L 447.2526 171.1723 L 448.699 169.8608 L 449.075 168.588 L 448.6411 167.8166 L 445.1697 166.1195 L 442.3637 161.4138 L 436.6938 158.7525 L 433.4249 147.2969 L 432.8464 142.8999 L 431.1685 140.2385 L 428.5361 138.2328 Z" fill="#000000" fill-opacity="1" stroke="#000000" stroke-width="0" paint-order="fill" stroke-opacity="1" stroke-dasharray="" stroke-linecap="butt" stroke-linejoin="miter" stroke-miterlimit="10" transform="matrix(0.8500000238418579,0,0,0.8500000238418579,59.999778747558594,39.974998474121094)" clip-path="none" style="filter: url(#f1)"/>
<path d="M 449.104 283.259 L 448.265 283.2204 L 446.9922 281.0604 L 446.4136 279.209 L 446.674 277.2419 L 445.7483 277.7819 L 443.868 276.8562 L 441.3223 278.1676 L 440.9173 277.7819 L 441.0619 273.7705 L 441.7851 271.2634 L 440.7727 269.0649 L 441.1487 267.0592 L 445.4879 266.3649 L 446.1533 265.555 L 445.864 263.0479 L 444.4755 260.695 L 440.657 258.1494 L 438.9502 258.2265 L 438.3716 257.2622 L 437.822 253.5209 L 436.2888 251.978 L 434.987 254.7166 L 431.0528 255.1023 L 427.6393 256.3751 L 424.8911 255.7966 L 421.6223 252.7495 L 420.8412 253.4823 L 420.0312 256.4523 L 419.6262 256.6451 L 417.3409 252.8266 L 415.2292 245.3439 L 413.5513 242.2968 L 407.6789 243.7239 L 406.6375 244.8039 L 406.1168 243.7239 L 406.2036 241.4482 L 404.9308 241.9496 L 403.7736 245.3824 L 404.4968 250.8595 L 404.2076 255.3337 L 403.5711 255.7194 L 401.5173 254.0994 L 397.7277 256.6837 L 397.178 260.1551 L 394.5456 263.125 L 393.6488 266.4035 L 392.5495 267.3292 L 389.4832 267.4835 L 388.4128 270.5692 L 388.4128 271.7263 L 390.0039 273.6934 L 391.9131 273.8862 L 393.6199 276.3934 L 395.6738 278.0905 L 397.8145 278.2447 L 398.798 276.8176 L 401.199 276.3548 L 408.2575 279.3633 L 408.7782 285.9975 L 408.46 297.4916 L 409.5303 296.4502 L 412.9438 300.3458 L 413.9274 300.7701 L 413.9853 299.613 L 415.0556 297.3373 L 416.3284 296.4502 L 418.903 298.3787 L 420.4073 298.6873 L 421.7091 300.8472 L 422.9819 301.8115 L 426.0772 301.7729 L 430.0693 304.4729 L 430.4743 297.0673 L 432.0364 296.7587 L 436.4334 298.4558 L 438.7477 301.8115 L 439.9048 300.7701 L 441.7851 301.1558 L 442.8844 298.9958 L 442.6819 291.706 L 443.0291 290.4717 L 443.2894 289.9317 L 445.6904 291.0888 L 446.1244 288.4274 L 449.104 283.259 Z" fill="#000000" fill-opacity="1" stroke="#000000" stroke-width="0" paint-order="fill" stroke-opacity="1" stroke-dasharray="" stroke-linecap="butt" stroke-linejoin="miter" stroke-miterlimit="10" transform="matrix(0.8500000238418579,0,0,0.8500000238418579,59.999778747558594,39.974998474121094)" clip-path="none" style="filter: url(#f1)"/>
<path d="M 341.7518 267.7149 L 341.3758 268.0621 L 341.7518 268.872 L 341.4625 270.222 L 342.2725 272.382 L 341.9543 272.6906 L 342.1279 276.5091 L 343.3139 280.6361 L 344.2107 280.9061 L 344.8182 281.909 L 345.4546 284.2618 L 345.0496 286.0746 L 346.2935 289.546 L 345.686 290.5488 L 346.93 294.1359 L 348.3185 293.4416 L 349.5624 294.2902 L 350.6038 293.7116 L 355.753 296.5273 L 356.2448 298.3016 L 356.968 298.4173 L 358.183 297.3759 L 361.1915 299.073 L 362.3486 301.7729 L 362.8115 300.5387 L 364.1711 299.3044 L 365.6754 299.343 L 366.1382 299.8444 L 366.9482 305.5143 L 367.845 308.1371 L 369.4649 302.7372 L 370.1014 294.753 L 370.651 293.6731 L 371.7792 293.4802 L 371.2585 291.5131 L 372.2131 290.2017 L 371.7503 289.0446 L 370.7667 288.9674 L 370.1303 287.9646 L 370.0146 286.3832 L 375.6555 286.9232 L 376.6391 287.6946 L 376.8705 284.4546 L 378.6351 282.0247 L 379.098 280.1733 L 380.3997 279.0547 L 382.1933 273.7705 L 382.1644 272.5363 L 385.3175 270.9934 L 388.4128 271.7263 L 388.6153 269.1806 L 389.3675 267.5606 L 392.5495 267.3292 L 393.8224 266.1721 L 394.4588 263.2793 L 396.773 260.965 L 397.6987 258.1879 L 397.7277 256.6837 L 396.4838 255.218 L 396.8598 253.868 L 396.0788 251.5538 L 395.9341 244.7653 L 394.5456 239.0183 L 393.2149 237.3983 L 388.6732 234.5826 L 386.6482 234.7369 L 385.8961 235.8555 L 384.334 236.2797 L 382.0486 234.9683 L 380.689 225.3256 L 379.5608 221.1214 L 379.2716 216.5701 L 377.6227 212.8287 L 377.8541 210.0902 L 376.3498 208.8945 L 376.4945 207.1202 L 373.7752 207.7759 L 373.052 206.6574 L 370.4196 205.4617 L 368.4814 203.6489 L 368.5682 202.1832 L 367.9317 202.2603 L 366.1961 199.8689 L 364.1132 199.2518 L 362.6379 197.4004 L 362.0593 197.1304 L 361.1626 197.7861 L 358.0962 197.3232 L 347.1035 192.1548 L 347.1325 193.6976 L 346.5539 194.1219 L 346.5539 195.5104 L 345.9175 195.9347 L 346.12 196.899 L 345.3968 199.5604 L 346.4671 203.8803 L 346.0043 205.886 L 348.2317 208.5088 L 350.8352 210.1673 L 352.8891 213.7158 L 354.5959 215.3358 L 356.5051 218.6529 L 356.6787 220.7743 L 358.183 223.5514 L 353.0916 230.5713 L 350.8063 231.0727 L 348.2028 234.4669 L 347.6821 230.8027 L 346.6117 231.3427 L 346.3514 233.1169 L 347.4507 237.2826 L 347.3928 239.3654 L 346.2357 242.3739 L 344.2686 243.9168 L 348.1449 249.6252 L 347.8846 250.9366 L 348.926 253.4437 L 348.3474 254.0609 L 345.4546 254.6009 L 342.8511 257.8794 L 342.5618 259.7693 L 342.9957 264.5907 L 342.6197 266.4421 L 341.7518 267.7149 Z" fill="#000000" fill-opacity="1" stroke="#000000" stroke-width="0" paint-order="fill" stroke-opacity="1" stroke-dasharray="" stroke-linecap="butt" stroke-linejoin="miter" stroke-miterlimit="10" transform="matrix(0.8500000238418579,0,0,0.8500000238418579,59.999778747558594,39.974998474121094)" clip-path="none" style="filter: url(#f1)"/>
<path d="M 388.4128 271.7263 L 385.3175 270.9934 L 382.1644 272.5363 L 382.1933 273.7705 L 380.3997 279.0547 L 379.098 280.1733 L 378.6351 282.0247 L 376.668 285.0718 L 376.6391 287.6946 L 377.2466 288.3117 L 378.7508 293.1331 L 383.8711 298.1473 L 386.5904 302.4672 L 388.731 302.3129 L 390.0907 304.3957 L 392.2024 304.8972 L 394.372 306.5943 L 405.9432 305.2829 L 405.6829 302.4672 L 408.46 297.4916 L 408.5757 279.8647 L 404.6993 277.4733 L 401.199 276.3548 L 398.798 276.8176 L 397.8145 278.2447 L 395.6738 278.0905 L 393.6199 276.3934 L 391.9131 273.8862 L 390.0039 273.6934 L 388.4128 271.7263 Z" fill="#000000" fill-opacity="1" stroke="#000000" stroke-width="0" paint-order="fill" stroke-opacity="1" stroke-dasharray="" stroke-linecap="butt" stroke-linejoin="miter" stroke-miterlimit="10" transform="matrix(0.8500000238418579,0,0,0.8500000238418579,59.999778747558594,39.974998474121094)" clip-path="none" style="filter: url(#f1)"/>
<path d="M 368.8285 305.63 L 371.6924 309.5257 L 373.3124 316.6998 L 374.8456 317.2012 L 376.5812 318.7055 L 382.8876 327.3068 L 384.6232 328.1553 L 387.4582 328.3482 L 388.2682 329.6596 L 389.0203 329.8525 L 389.9171 329.0425 L 390.0328 327.1911 L 393.0124 322.4469 L 396.5127 322.794 L 397.8723 323.7197 L 399.8973 326.4582 L 401.2858 326.4582 L 401.4883 325.2625 L 400.4758 320.1326 L 400.6494 318.2426 L 405.9722 305.2829 L 394.5745 306.6714 L 392.2024 304.8972 L 390.3221 304.5115 L 388.731 302.3129 L 386.5904 302.4672 L 383.8711 298.1473 L 379.098 293.6731 L 377.1309 288.1189 L 375.6555 286.9232 L 371.1138 286.1903 L 370.0146 286.3832 L 370.1303 287.9646 L 370.7667 288.9674 L 371.7503 289.0446 L 372.2131 290.2017 L 371.2585 291.5131 L 371.7792 293.4802 L 370.651 293.6731 L 370.1014 294.753 L 369.7831 300.6158 L 368.8285 305.63 Z" fill="#000000" fill-opacity="1" stroke="#000000" stroke-width="0" paint-order="fill" stroke-opacity="1" stroke-dasharray="" stroke-linecap="butt" stroke-linejoin="miter" stroke-miterlimit="10" transform="matrix(0.8500000238418579,0,0,0.8500000238418579,59.999778747558594,39.974998474121094)" clip-path="none" style="filter: url(#f1)"/>
<path d="M 278.2258 207.0817 L 273.6551 206.2331 L 273.0476 205.076 L 276.114 216.8786 L 272.7583 229.1441 L 270.1259 233.5412 L 269.258 236.6654 L 268.5927 236.974 L 267.9852 238.6711 L 265.6999 239.5197 L 265.3528 240.7925 L 263.9642 240.9082 L 263.0964 242.9139 L 260.3771 245.4982 L 260.1746 246.3853 L 261.0135 247.2338 L 261.0714 248.1981 L 260.6375 248.9695 L 259.2489 249.4324 L 258.4389 252.5952 L 257.0504 254.678 L 252.7112 254.5237 L 250.6284 256.568 L 250.5705 260.4636 L 249.8184 263.2793 L 249.7316 266.1721 L 256.009 277.2419 L 256.4718 283.0275 L 258.005 288.736 L 257.629 291.2817 L 258.9018 297.2216 L 258.2364 300.3458 L 262.3732 310.2585 L 263.4435 320.5955 L 265.8156 320.2098 L 267.7249 321.2512 L 271.1962 321.3669 L 274.3205 317.5098 L 279.0068 322.4469 L 282.3335 323.9126 L 285.8049 322.6397 L 287.0777 323.2183 L 287.6852 319.4383 L 289.8259 318.4741 L 290.2598 319.9398 L 291.0698 319.5155 L 291.9377 320.4798 L 292.5162 322.3697 L 293.413 321.9069 L 294.7148 323.9126 L 295.5826 324.2983 L 298.6201 322.794 L 304.6371 324.1826 L 312.6502 323.5654 L 313.4312 324.4911 L 315.8033 331.8196 L 316.4108 332.2824 L 317.4522 330.5853 L 318.0308 330.8553 L 318.6961 333.131 L 319.6508 334.0567 L 321.0393 333.0153 L 323.585 335.6381 L 325.4364 333.1695 L 327.1142 332.4367 L 329.0813 334.8667 L 329.9781 334.8667 L 331.1641 336.1009 L 332.437 336.1781 L 334.2884 337.6052 L 335.0405 339.1094 L 336.5158 339.8809 L 336.7473 340.768 L 338.1937 341.3465 L 340.4501 342.118 L 341.5204 341.0766 L 344.9339 342.6965 L 349.0706 341.0766 L 349.736 339.418 L 347.8267 336.6409 L 345.0786 337.0652 L 343.1693 336.5638 L 342.7065 334.7124 L 343.9504 333.131 L 343.2561 332.9767 L 342.9957 332.051 L 344.5868 330.7782 L 346.4092 330.3924 L 348.8681 328.3482 L 351.732 327.8468 L 352.6288 329.3125 L 353.3809 328.541 L 353.0338 326.6511 L 354.2198 325.3011 L 354.7116 325.0697 L 355.8109 326.3425 L 356.2448 326.1497 L 355.8109 322.3312 L 354.6538 321.3669 L 349.7938 322.254 L 347.9135 323.1797 L 346.0621 322.2926 L 346.4092 317.2012 L 348.116 315.9284 L 345.715 312.6499 L 345.7439 308.7928 L 346.3225 307.7128 L 346.496 305.09 L 347.3639 304.6272 L 347.7689 303.3929 L 347.5664 299.4587 L 346.6696 296.4887 L 348.5789 295.563 L 349.5624 294.2902 L 348.8392 293.4031 L 346.93 294.1359 L 345.686 290.5488 L 346.2935 289.546 L 345.0496 286.0746 L 345.4546 284.2618 L 344.5868 281.3304 L 343.3139 280.6361 L 342.8222 279.5176 L 342.1279 276.5091 L 341.9543 272.6906 L 342.2725 272.382 L 341.4625 270.222 L 341.5783 263.125 L 340.074 261.1193 L 337.0365 252.8266 L 334.9827 250.4738 L 333.5073 246.9638 L 330.9906 246.1539 L 329.5442 247.1567 L 325.205 255.488 L 321.9072 258.5736 L 311.493 257.4551 L 308.5713 256.4908 L 306.8356 253.6366 L 305.5917 245.3824 L 301.1368 234.6598 L 300.5293 218.1515 L 299.864 217.7272 L 297.8101 218.0743 L 297.1736 218.6915 L 294.0205 218.8843 L 292.1402 217.5343 L 290.6648 218.0743 L 287.8009 217.1872 L 285.1106 212.8673 L 283.375 212.2116 L 282.6807 210.5916 L 278.2258 207.0817 Z" fill="#000000" fill-opacity="1" stroke="#000000" stroke-width="0" paint-order="fill" stroke-opacity="1" stroke-dasharray="" stroke-linecap="butt" stroke-linejoin="miter" stroke-miterlimit="10" transform="matrix(0.8500000238418579,0,0,0.8500000238418579,59.999778747558594,39.974998474121094)" clip-path="none" style="filter: url(#f1)"/>
<path d="M 527.4412 86.9722 L 527.6437 85.5837 L 526.5734 85.738 L 524.5484 82.8066 L 523.0152 79.1809 L 521.4242 77.6381 L 520.3249 73.0482 L 515.7543 68.1497 L 510.5472 66.2597 L 506.8444 63.2126 L 504.588 60.0498 L 502.592 59.0856 L 498.6288 55.3442 L 490.6736 53.2999 L 489.1693 55.1899 L 480.9827 59.5098 L 473.6639 62.0169 L 469.585 61.8241 L 463.8573 65.3726 L 459.4891 70.4639 L 457.7534 71.7753 L 457.551 74.2825 L 458.1584 75.5939 L 457.9559 77.0595 L 459.0263 78.2552 L 459.2288 80.1838 L 460.762 83.308 L 463.1051 85.6994 L 468.3701 89.0551 L 469.18 93.0279 L 472.0439 95.265 L 471.0025 97.0778 L 470.8289 98.6206 L 471.2629 99.4306 L 473.0275 100.1249 L 473.5482 101.1277 L 473.7796 105.8334 L 472.8828 109.1504 L 474.6185 111.4647 L 475.9781 115.476 L 476.6435 115.0903 L 477.251 113.6246 L 477.3088 109.3047 L 478.9288 103.2105 L 479.4784 104.9462 L 480.7802 104.2519 L 481.6191 105.5634 L 484.9748 102.0148 L 485.6112 102.2848 L 485.6691 103.7505 L 486.1608 104.2905 L 488.8511 102.7091 L 487.8676 104.9077 L 488.6486 110.6933 L 487.694 114.0104 L 487.5204 116.4403 L 489.0826 114.8203 L 491.5993 109.729 L 492.7564 108.5719 L 493.9714 107.6462 L 496.546 107.8776 L 499.6992 105.7562 L 506.0634 96.1907 L 507.9147 95.6892 L 508.9562 94.7635 L 512.0225 94.8792 L 512.7168 93.2593 L 516.7378 89.7493 L 521.5399 88.6694 L 524.8088 86.548 L 527.4412 86.9722 Z" fill="#000000" fill-opacity="1" stroke="#000000" stroke-width="0" paint-order="fill" stroke-opacity="1" stroke-dasharray="" stroke-linecap="butt" stroke-linejoin="miter" stroke-miterlimit="10" transform="matrix(0.8500000238418579,0,0,0.8500000238418579,59.999778747558594,39.974998474121094)" clip-path="none" style="filter: url(#f1)"/>
<path d="M 396.8309 428.7094 L 397.583 440.4735 L 399.1741 446.7219 L 400.794 448.1105 L 402.3272 454.5904 L 400.8519 463.0759 L 399.0584 466.2002 L 401.8065 468.8616 L 401.7776 473.5286 L 402.7033 474.5315 L 403.224 476.8071 L 405.3647 478.3885 L 407.7368 479.0442 L 408.0261 479.6999 L 408.6046 477.8485 L 408.2575 475.4572 L 410.5428 474.6472 L 415.3449 474.9943 L 421.1594 470.4044 L 427.1475 466.663 L 428.2757 464.3102 L 428.5361 461.726 L 429.8378 459.4117 L 434.3796 459.6046 L 435.2185 463.1145 L 437.417 464.0016 L 441.6116 459.2189 L 443.9258 458.8717 L 443.5787 455.1689 L 443.9837 453.4718 L 445.864 452.4304 L 447.9179 452.199 L 448.4965 451.389 L 448.1783 449.3062 L 447.2236 449.0362 L 446.7029 447.8405 L 445.6904 443.9448 L 445.3722 440.4349 L 443.6944 440.3192 L 442.7108 438.6992 L 441.1777 434.8421 L 440.7437 431.525 L 437.3881 430.9079 L 436.5492 430.0208 L 434.5821 430.6765 L 433.5406 428.4008 L 433.8299 424.1966 L 432.0942 424.5052 L 431.4 426.4723 L 430.0114 427.938 L 428.97 427.3594 L 427.379 428.1694 L 426.569 426.2023 L 425.2672 428.2465 L 424.1969 428.9408 L 423.6472 430.6379 L 421.9983 428.5551 L 420.6966 428.4008 L 420.5519 426.0094 L 419.7419 424.428 L 419.6841 421.3424 L 423.3869 420.9181 L 424.0812 417.601 L 425.5565 416.2124 L 426.974 412.0082 L 421.738 412.0854 L 419.5394 410.3497 L 417.8905 411.7768 L 413.6381 408.4211 L 413.667 406.9169 L 413.1174 406.1069 L 411.7578 408.0354 L 411.1214 412.6254 L 409.1832 414.9782 L 407.3897 414.8625 L 407.245 420.7252 L 406.5507 423.6566 L 406.6375 427.8994 L 403.4554 427.668 L 402.2405 426.7037 L 396.8309 428.7094 Z" fill="#000000" fill-opacity="1" stroke="#000000" stroke-width="0" paint-order="fill" stroke-opacity="1" stroke-dasharray="" stroke-linecap="butt" stroke-linejoin="miter" stroke-miterlimit="10" transform="matrix(0.8500000238418579,0,0,0.8500000238418579,59.999778747558594,39.974998474121094)" clip-path="none" style="filter: url(#f1)"/>
<path d="M 476.2096 341.578 L 476.9038 342.8122 L 476.5567 345.3965 L 477.3378 347.7493 L 476.5567 353.8821 L 477.2221 359.6677 L 476.9617 363.5633 L 477.3088 366.7261 L 475.0814 368.4232 L 462.4109 366.109 L 455.7285 365.8004 L 458.4767 370.4289 L 458.3031 372.5889 L 456.1335 375.4045 L 455.6417 378.1431 L 456.1045 380.8816 L 451.6786 383.5044 L 453.096 385.3944 L 453.9639 385.6258 L 454.8896 387.7858 L 454.8896 389.6757 L 456.307 393.5714 L 456.5674 396.0399 L 455.2367 402.9055 L 457.146 408.6526 L 456.9724 411.6997 L 456.1045 413.0111 L 455.3524 411.4297 L 453.2985 412.3939 L 453.8771 414.5539 L 453.9928 420.3009 L 454.6581 421.6123 L 454.1953 423.7723 L 457.0302 422.4995 L 461.0223 425.0837 L 467.8494 411.5454 L 469.9032 411.6611 L 471.6679 409.424 L 471.6389 408.7683 L 478.842 406.0683 L 480.7223 404.0241 L 482.3712 403.5998 L 482.2266 401.7484 L 480.6356 400.7456 L 480.5199 399.8584 L 482.3134 395.4228 L 483.6152 393.61 L 483.3548 391.18 L 488.4172 382.9644 L 487.5494 382.4244 L 484.1359 383.2344 L 483.268 382.4244 L 482.863 378.3745 L 483.0366 371.3546 L 482.5159 368.5775 L 483.0945 365.4147 L 483.0077 355.5406 L 483.8177 353.9978 L 483.3259 350.3335 L 490.124 331.3567 L 488.5619 329.6596 L 486.5658 329.3125 L 484.8591 327.8468 L 481.4456 328.3482 L 477.1063 327.5768 L 476.8171 328.0782 L 477.3088 329.1968 L 478.6395 330.8939 L 481.3588 332.591 L 481.4166 333.2081 L 478.3502 334.0567 L 477.3378 335.9852 L 476.5567 335.4838 L 476.3542 333.5167 L 476.0071 334.0181 L 476.6724 340.228 L 476.2096 341.578 Z" fill="#000000" fill-opacity="1" stroke="#000000" stroke-width="0" paint-order="fill" stroke-opacity="1" stroke-dasharray="" stroke-linecap="butt" stroke-linejoin="miter" stroke-miterlimit="10" transform="matrix(0.8500000238418579,0,0,0.8500000238418579,59.999778747558594,39.974998474121094)" clip-path="none" style="filter: url(#f1)"/>
<path d="M 287.6852 319.4383 L 286.8752 323.3726 L 288.5531 327.1139 L 291.3302 328.2711 L 292.603 332.5138 L 294.3966 332.861 L 295.4669 334.211 L 295.5247 335.5224 L 298.3018 336.8338 L 299.864 339.3023 L 301.8889 339.4566 L 305.0999 341.0766 L 307.6167 341.3851 L 309.9888 344.7408 L 311.898 345.6665 L 316.4398 345.9365 L 316.8737 346.2836 L 317.134 348.945 L 318.1754 350.3721 L 323.0064 349.5236 L 324.9157 353.2263 L 327.201 353.9592 L 330.6434 353.8821 L 332.5816 355.8106 L 335.5901 356.1577 L 339.0037 359.9762 L 340.5079 363.9105 L 345.4835 363.8333 L 346.7853 363.0619 L 345.2521 362.2133 L 342.7354 362.2905 L 341.9543 360.8248 L 343.2561 360.0148 L 343.3718 359.3977 L 341.3179 359.1662 L 340.3054 357.7391 L 340.5079 356.4277 L 342.4172 355.502 L 341.4047 353.3035 L 342.3015 350.9507 L 342.3015 347.6336 L 340.5368 342.2337 L 336.7473 340.768 L 336.5158 339.8809 L 335.0405 339.1094 L 334.1148 337.4123 L 332.2634 336.1009 L 330.9906 335.9852 L 329.9781 334.8667 L 329.0813 334.8667 L 327.606 332.7067 L 326.4199 332.4753 L 323.4114 335.6381 L 321.184 333.0924 L 319.6508 334.0567 L 319.0722 333.6324 L 318.1754 331.0096 L 317.5969 330.6239 L 316.2373 332.1667 L 315.5141 331.2024 L 313.4312 324.4911 L 312.6502 323.5654 L 304.6371 324.1826 L 298.6201 322.794 L 295.5826 324.2983 L 294.7148 323.9126 L 293.413 321.9069 L 292.5162 322.3697 L 291.9377 320.4798 L 291.0698 319.5155 L 290.2598 319.9398 L 289.8259 318.4741 L 287.6852 319.4383 Z" fill="#000000" fill-opacity="1" stroke="#000000" stroke-width="0" paint-order="fill" stroke-opacity="1" stroke-dasharray="" stroke-linecap="butt" stroke-linejoin="miter" stroke-miterlimit="10" transform="matrix(0.8500000238418579,0,0,0.8500000238418579,59.999778747558594,39.974998474121094)" clip-path="none" style="filter: url(#f1)"/>
<path d="M 454.4556 194.739 L 452.2571 192.5019 L 451.7653 190.4962 L 451.0711 189.6862 L 450.4636 184.4792 L 449.3354 182.0106 L 444.8515 181.1621 L 444.4755 180.545 L 444.0994 182.5506 L 442.248 186.3691 L 440.8884 187.2948 L 439.413 189.2234 L 435.6524 196.7833 L 435.9127 199.6375 L 435.4499 203.7646 L 436.4913 206.3488 L 436.8384 210.1287 L 436.3177 211.7873 L 433.8589 214.1401 L 434.2349 216.5701 L 433.8878 217.9972 L 429.6643 215.3358 L 426.7136 218.0743 L 423.9944 219.3857 L 421.3908 221.6228 L 418.903 219.54 L 418.0063 216.0301 L 414.9688 213.9087 L 414.0431 212.3273 L 409.4725 211.2859 L 406.9268 211.8644 L 406.5218 212.7901 L 404.4968 213.7544 L 401.5173 213.6773 L 400.5626 215.1815 L 400.3891 216.7244 L 397.3227 218.8072 L 395.6738 219 L 396.0209 221.8928 L 396.8888 223.32 L 396.6573 225.2099 L 398.7691 227.8713 L 398.4509 231.0341 L 397.8723 231.6898 L 395.3266 231.8441 L 392.6653 234.6983 L 391.3346 234.6983 L 390.756 236.0483 L 393.7935 237.8611 L 394.5456 239.0183 L 395.9341 244.7653 L 396.0788 251.5538 L 396.8598 253.868 L 396.5416 255.3723 L 397.7277 256.6837 L 401.5173 254.0994 L 403.5711 255.7194 L 404.2076 255.3337 L 404.4968 250.8595 L 403.8026 244.9582 L 404.6415 242.3353 L 405.8565 241.2168 L 406.2325 241.6025 L 406.1457 243.9168 L 406.6375 244.8039 L 407.6789 243.7239 L 413.8695 242.5282 L 415.9813 247.581 L 416.2127 249.8181 L 417.2541 252.6337 L 419.7419 256.7223 L 420.7544 253.6366 L 421.6223 252.7495 L 424.8911 255.7966 L 427.5236 256.3751 L 431.0528 255.1023 L 435.1028 254.6009 L 437.9666 247.3496 L 441.6694 241.6796 L 443.5208 240.5997 L 442.7108 234.8526 L 443.2315 233.3484 L 445.8929 232.8469 L 448.0625 234.3512 L 451.3893 233.8112 L 452.315 231.6512 L 454.1953 230.957 L 457.2327 226.7913 L 459.4023 226.5985 L 460.0966 225.0556 L 460.0677 223.0114 L 459.0552 219.7329 L 454.8896 218.1129 L 453.125 215.2972 L 453.2407 213.9858 L 454.716 211.363 L 454.8896 207.9688 L 456.8567 205.2303 L 455.9021 201.2575 L 454.7739 198.9818 L 454.4556 194.739 Z" fill="#000000" fill-opacity="1" stroke="#000000" stroke-width="0" paint-order="fill" stroke-opacity="1" stroke-dasharray="" stroke-linecap="butt" stroke-linejoin="miter" stroke-miterlimit="10" transform="matrix(0.8500000238418579,0,0,0.8500000238418579,59.999778747558594,39.974998474121094)" clip-path="none" style="filter: url(#f1)"/>
<path d="M 384.3629 375.096 L 383.4661 374.1317 L 384.1604 373.5532 L 384.305 371.9717 L 387.1111 371.5475 L 387.8921 370.2746 L 388.8178 370.5832 L 388.9914 368.0375 L 390.4667 365.9933 L 391.5949 367.1504 L 395.1241 365.9161 L 396.5995 366.0318 L 397.7855 363.1776 L 396.8598 361.8662 L 397.4384 360.7862 L 397.0045 359.5905 L 396.9755 356.2349 L 394.8059 354.0363 L 396.1945 351.9921 L 395.7316 350.0635 L 397.4962 343.7765 L 396.7441 338.3766 L 395.182 337.0266 L 394.6613 333.131 L 390.1774 326.9596 L 389.9749 328.9653 L 389.0203 329.8525 L 388.2682 329.6596 L 387.4582 328.3482 L 383.1479 327.5382 L 381.3833 325.7254 L 376.5812 318.7055 L 374.8456 317.2012 L 373.3124 316.6998 L 372.4735 311.7242 L 370.9403 308.0985 L 368.8285 305.63 L 368.0764 307.9057 L 367.4689 307.79 L 366.1382 299.8444 L 365.6754 299.343 L 364.1711 299.3044 L 362.8115 300.5387 L 362.3486 301.7729 L 360.8154 298.7258 L 359.3401 298.4173 L 358.183 297.3759 L 356.968 298.4173 L 356.2448 298.3016 L 355.753 296.5273 L 350.6038 293.7116 L 346.6696 296.4887 L 347.5664 299.4587 L 347.7689 303.3929 L 347.3639 304.6272 L 346.496 305.09 L 346.3225 307.7128 L 345.7439 308.7928 L 345.715 312.6499 L 348.116 315.9284 L 346.4092 317.2012 L 346.0621 322.2926 L 347.9135 323.1797 L 349.7938 322.254 L 355.1745 321.4055 L 355.8109 322.3312 L 356.1002 325.1468 L 358.6748 323.2954 L 362.0593 322.6397 L 364.0843 326.3811 L 363.9397 331.0096 L 365.1546 333.7867 L 366.5721 333.8638 L 366.8325 334.5195 L 367.0639 338.5309 L 369.5806 340.1509 L 369.5806 340.8066 L 368.3078 341.7708 L 366.7746 344.2779 L 362.2618 347.2864 L 362.3776 350.6807 L 363.2165 352.3007 L 363.3033 353.6121 L 361.2783 359.552 L 360.2947 360.9791 L 361.2204 361.2491 L 363.39 363.949 L 364.8364 364.6047 L 366.225 367.3047 L 367.2085 367.5361 L 368.5392 369.4261 L 372.0974 371.1618 L 377.1598 374.9417 L 378.5194 374.9803 L 379.503 376.3688 L 381.1808 376.0988 L 381.8462 374.4789 L 383.119 375.366 L 384.3629 375.096 Z" fill="#000000" fill-opacity="1" stroke="#000000" stroke-width="0" paint-order="fill" stroke-opacity="1" stroke-dasharray="" stroke-linecap="butt" stroke-linejoin="miter" stroke-miterlimit="10" transform="matrix(0.8500000238418579,0,0,0.8500000238418579,59.999778747558594,39.974998474121094)" clip-path="none" style="filter: url(#f1)"/>
<path d="M 377.1598 374.9417 L 372.0974 371.1618 L 368.1053 369.0789 L 367.2085 367.5361 L 366.225 367.3047 L 364.8364 364.6047 L 363.39 363.949 L 361.2204 361.2491 L 360.2947 360.9791 L 361.2783 359.552 L 363.3033 353.6121 L 363.2165 352.3007 L 362.3776 350.6807 L 362.2618 347.2864 L 366.7746 344.2779 L 368.3078 341.7708 L 369.5806 340.8066 L 369.2914 339.6109 L 367.3821 339.148 L 366.5721 333.8638 L 365.1546 333.7867 L 363.9397 331.0096 L 364.0843 326.3811 L 362.5222 322.9869 L 362.0593 322.6397 L 358.2119 323.5268 L 356.1002 325.1468 L 356.2448 326.1497 L 355.8109 326.3425 L 354.7116 325.0697 L 354.2198 325.3011 L 353.0338 326.6511 L 353.3809 328.541 L 352.6288 329.3125 L 351.732 327.8468 L 348.8681 328.3482 L 346.4092 330.3924 L 344.5868 330.7782 L 342.9957 332.051 L 343.2561 332.9767 L 343.9504 333.131 L 342.7065 334.7124 L 343.1693 336.5638 L 345.0786 337.0652 L 347.6532 336.5252 L 349.7938 339.6494 L 349.0706 341.0766 L 345.2521 342.6965 L 341.5204 341.0766 L 340.4501 342.118 L 342.3015 347.6336 L 342.3015 350.9507 L 341.4047 353.3035 L 342.4172 355.502 L 340.5079 356.4277 L 340.3054 357.7391 L 341.3179 359.1662 L 343.3718 359.3977 L 343.2561 360.0148 L 341.9543 360.8248 L 342.3593 361.9433 L 343.285 362.4833 L 345.7439 362.3291 L 347.1614 363.4862 L 348.2317 362.4448 L 349.2153 362.6376 L 349.8517 363.6019 L 351.2402 363.7947 L 353.0338 363.1005 L 354.3934 364.6433 L 355.377 364.6433 L 356.7655 366.9961 L 357.4019 370.1204 L 358.6458 371.0461 L 359.9187 373.7074 L 361.5386 374.1703 L 361.6833 375.4431 L 362.4643 376.5231 L 365.0679 377.3331 L 366.4275 379.1073 L 367.44 381.8844 L 369.7542 383.3501 L 370.651 382.6944 L 373.1388 378.7602 L 377.3623 378.0659 L 377.1598 374.9417 Z" fill="#000000" fill-opacity="1" stroke="#000000" stroke-width="0" paint-order="fill" stroke-opacity="1" stroke-dasharray="" stroke-linecap="butt" stroke-linejoin="miter" stroke-miterlimit="10" transform="matrix(0.8500000238418579,0,0,0.8500000238418579,59.999778747558594,39.974998474121094)" clip-path="none" style="filter: url(#f1)"/>
<path d="M 445.6904 291.0888 L 443.2894 289.9317 L 443.0291 290.4717 L 442.6819 291.706 L 442.8844 298.9958 L 442.1901 300.6929 L 441.3223 301.4258 L 439.9048 300.7701 L 438.7477 301.8115 L 436.4334 298.4558 L 432.0364 296.7587 L 430.4743 297.0673 L 430.0693 304.4729 L 426.0772 301.7729 L 422.9819 301.8115 L 421.7091 300.8472 L 420.4073 298.6873 L 418.903 298.3787 L 416.3284 296.4502 L 415.0556 297.3373 L 413.9853 299.613 L 413.9274 300.7701 L 412.9438 300.3458 L 410.3982 297.1444 L 409.0964 296.7202 L 405.6829 302.4672 L 405.9722 305.2829 L 400.7073 317.8955 L 400.4758 320.1326 L 401.4883 325.2625 L 401.2858 326.4582 L 399.8973 326.4582 L 397.8723 323.7197 L 396.5127 322.794 L 393.186 322.4083 L 390.1774 326.9596 L 394.6613 333.131 L 395.182 337.0266 L 396.7441 338.3766 L 397.4962 343.7765 L 395.7316 350.0635 L 396.0498 351.8378 L 397.178 353.1492 L 398.6244 352.4549 L 401.3726 353.3035 L 404.2654 352.7249 L 405.6829 354.5763 L 406.6375 354.962 L 408.2286 353.4192 L 408.1418 351.375 L 410.6296 351.1821 L 413.4067 349.5621 L 414.8531 351.2978 L 416.7045 351.5678 L 416.9359 355.5406 L 417.6881 356.3506 L 420.5519 356.042 L 421.5644 354.5378 L 422.2876 350.7578 L 422.8951 349.6778 L 426.7425 347.6336 L 427.1475 343.8151 L 429.4618 342.1565 L 432.9332 340.8837 L 433.1646 342.118 L 432.6149 343.8922 L 433.6564 349.6778 L 433.3671 352.9949 L 433.6853 354.8849 L 436.4334 357.8163 L 441.2355 360.1305 L 444.4176 365.4147 L 445.3722 365.5304 L 446.5872 364.2576 L 447.5418 364.0647 L 449.3064 365.1447 L 453.2407 365.5304 L 452.286 362.5219 L 453.7903 358.3563 L 453.6167 354.2678 L 455.1788 347.055 L 454.4267 346.2065 L 454.8317 342.658 L 454.4556 337.9909 L 445.7483 335.6381 L 440.4255 332.0896 L 441.3223 329.8525 L 440.6859 324.3368 L 440.8016 319.0526 L 439.1238 314.347 L 438.1113 312.8813 L 438.2559 312.2642 L 439.2105 311.9556 L 441.1777 312.3413 L 444.0994 311.8785 L 444.9962 312.3799 L 445.5458 309.1399 L 447.3683 305.2057 L 448.8147 305.0514 L 450.4636 303.7786 L 450.2321 298.4944 L 449.075 297.5687 L 448.3518 293.6731 L 447.5708 292.0145 L 445.6904 291.0888 Z" fill="#000000" fill-opacity="1" stroke="#000000" stroke-width="0" paint-order="fill" stroke-opacity="1" stroke-dasharray="" stroke-linecap="butt" stroke-linejoin="miter" stroke-miterlimit="10" transform="matrix(0.8500000238418579,0,0,0.8500000238418579,59.999778747558594,39.974998474121094)" clip-path="none" style="filter: url(#f1)"/>
<path d="M 498.571 281.6004 L 497.7321 281.1761 L 496.4014 281.9861 L 494.4343 281.4847 L 490.5868 282.2175 L 489.4586 281.099 L 488.4461 281.1761 L 487.694 280.2119 L 487.6362 277.6276 L 486.1319 274.2334 L 484.1648 274.9277 L 482.6895 274.7348 L 481.9084 277.7819 L 481.1852 278.5533 L 479.8545 277.6276 L 478.6685 275.5448 L 477.3667 274.5034 L 474.5028 274.0405 L 472.8539 272.8063 L 469.7586 272.8834 L 468.7172 276.0076 L 463.5969 281.7933 L 462.9605 280.7904 L 462.6134 278.0905 L 460.1545 277.3576 L 457.6377 273.1148 L 455.7574 273.3077 L 455.2656 277.2033 L 453.2696 284.1075 L 451.7943 284.6089 L 449.6536 282.6032 L 447.5129 285.4575 L 446.1244 288.4274 L 445.6904 291.0888 L 447.5708 292.0145 L 448.3518 293.6731 L 449.075 297.5687 L 450.2321 298.4944 L 450.5793 301.8115 L 450.2611 304.3572 L 447.3683 305.2057 L 445.5458 309.1399 L 444.9962 312.3799 L 444.0994 311.8785 L 438.2559 312.2642 L 438.1113 312.8813 L 440.628 317.8184 L 440.8594 319.6698 L 440.6859 324.3368 L 441.3223 329.8525 L 440.4255 332.0896 L 445.7483 335.6381 L 454.8606 338.338 L 455.2367 337.8752 L 455.2367 333.3238 L 457.2327 333.2081 L 456.9145 330.8553 L 458.1584 331.8196 L 458.5634 331.4339 L 458.3609 330.161 L 460.733 326.0339 L 464.1466 326.9596 L 466.5765 329.4667 L 468.0808 329.1196 L 469.9611 326.6897 L 470.424 326.7668 L 470.6554 328.0782 L 471.6968 327.3839 L 471.9861 328.7339 L 471.4364 329.5053 L 471.9282 331.7424 L 472.3911 331.8196 L 471.61 333.2853 L 473.3168 337.2966 L 472.6514 339.688 L 472.8539 340.9994 L 473.23 341.3465 L 474.7342 339.6494 L 474.6185 341.6165 L 475.1103 342.658 L 476.2096 341.578 L 476.6724 340.228 L 476.0071 334.0181 L 476.3542 333.5167 L 476.5567 335.4838 L 477.3378 335.9852 L 478.3502 334.0567 L 481.4166 333.2081 L 481.3588 332.591 L 478.6395 330.8939 L 477.3088 329.1968 L 476.8171 328.0782 L 477.1063 327.5768 L 481.4456 328.3482 L 484.8591 327.8468 L 486.5658 329.3125 L 488.5619 329.6596 L 490.124 331.3567 L 491.0207 329.0425 L 491.4547 319.8626 L 493.4507 312.4185 L 493.335 310.4899 L 495.8517 303.47 L 497.2403 297.8001 L 498.0792 283.9147 L 498.571 281.6004 Z" fill="rgba(244,246,247,1)" fill-opacity="1" stroke="#000000" stroke-width="0.5882352776180919" paint-order="fill" stroke-opacity="1" stroke-dasharray="" stroke-linecap="butt" stroke-linejoin="miter" stroke-miterlimit="10" transform="matrix(0.8500000238418579,0,0,0.8500000238418579,59.999778747558594,39.974998474121094)" clip-path="none"/>
<path d="M 384.3629 375.096 L 383.119 375.366 L 381.8462 374.4789 L 381.1808 376.0988 L 380.0237 376.4845 L 379.0112 375.9831 L 378.5194 374.9803 L 377.4202 374.7488 L 377.3623 378.0659 L 373.1388 378.7602 L 370.651 382.6944 L 369.7542 383.3501 L 370.9981 386.2044 L 371.9238 386.0887 L 372.5602 386.7829 L 373.6016 386.1272 L 377.0152 389.4443 L 377.9119 389.29 L 378.0566 387.9401 L 380.9494 386.7058 L 383.0901 388.8658 L 383.929 390.91 L 384.9993 391.0643 L 385.4043 394.9214 L 385.0861 400.7841 L 383.8133 405.644 L 385.0572 407.3412 L 386.2721 412.0854 L 386.4746 413.9368 L 385.925 415.711 L 387.2268 422.6538 L 384.8836 425.3923 L 384.5943 427.2051 L 385.4622 426.7808 L 388.0946 428.0922 L 393.1281 425.238 L 393.7645 425.5466 L 393.9959 426.4723 L 394.4009 425.8551 L 395.2688 427.8608 L 396.3102 428.8251 L 399.5212 428.0922 L 402.2405 426.7037 L 403.4554 427.668 L 406.6375 427.8994 L 406.5507 423.6566 L 407.245 420.7252 L 407.3897 414.8625 L 409.1832 414.9782 L 411.1214 412.6254 L 411.7578 408.0354 L 413.291 406.184 L 411.1214 398.3156 L 407.4186 394.9985 L 406.2615 393.1857 L 405.0465 388.7115 L 403.1372 388.5572 L 400.3601 385.3558 L 399.5212 385.3944 L 398.2773 384.3915 L 397.0623 379.9945 L 396.0209 379.8788 L 393.3306 377.7574 L 384.3629 375.096 Z" fill="rgba(244,246,247,1)" fill-opacity="1" stroke="#000000" stroke-width="0.5882352776180919" paint-order="fill" stroke-opacity="1" stroke-dasharray="" stroke-linecap="butt" stroke-linejoin="miter" stroke-miterlimit="10" transform="matrix(0.8500000238418579,0,0,0.8500000238418579,59.999778747558594,39.974998474121094)" clip-path="none"/>
<path d="M 497.2403 297.8001 L 496.4592 300.8858 L 498.7445 300.2301 L 523.7384 300.0372 L 525.2137 289.7388 L 527.2966 282.4875 L 530.2183 279.9419 L 530.9994 278.4376 L 530.9704 276.7019 L 532.4458 270.4149 L 531.6358 266.9821 L 531.954 264.0121 L 533.1979 260.965 L 533.6318 258.0337 L 534.9336 257.0694 L 535.9171 255.1023 L 537.3057 247.1181 L 539.5621 238.9797 L 542.1945 233.3484 L 545.0006 230.9184 L 544.7402 227.6399 L 545.608 227.3699 L 547.3148 228.1027 L 549.629 226.7913 L 550.2655 225.5956 L 550.1208 224.0528 L 548.9637 221.43 L 542.3102 221.0443 L 542.8309 218.4215 L 542.3102 216.0686 L 538.8678 214.2558 L 537.6817 212.6358 L 536.9585 206.156 L 537.5371 201.7589 L 536.7271 195.549 L 528.9455 182.8206 L 528.2512 177.575 L 528.5983 174.9908 L 526.1394 172.3294 L 522.4656 169.5523 L 522.2052 168.1637 L 522.9863 166.6595 L 523.1598 164.8081 L 521.5977 162.8024 L 522.0895 159.1767 L 523.1309 157.6339 L 524.2013 154.2397 L 523.9988 152.8511 L 526.5444 151.1154 L 527.9619 148.6469 L 527.5569 147.4898 L 527.8751 145.7155 L 527.3544 142.5527 L 525.532 138.9657 L 523.7963 133.72 L 522.4077 132.2929 L 521.5109 129.7087 L 521.5399 126.8159 L 522.0606 125.9673 L 521.2795 121.6474 L 518.8496 120.2974 L 517.866 118.0603 L 518.0974 111.9661 L 518.8206 109.8833 L 518.7917 107.2605 L 517.8082 106.7976 L 515.6675 106.9133 L 512.1382 109.0347 L 507.1048 113.9718 L 505.4559 117.7517 L 501.3191 122.6888 L 501.2324 130.4029 L 499.8149 134.5686 L 496.6039 139.1199 L 492.12 141.7042 L 491.4547 142.7842 L 490.2108 150.884 L 491.9175 160.0639 L 486.7683 169.128 L 479.9991 172.6379 L 479.3049 176.0322 L 477.3667 178.0379 L 476.036 180.815 L 474.8499 182.0492 L 471.0604 183.5535 L 470.0479 186.6777 L 467.9072 190.3034 L 466.3451 191.4219 L 467.7626 194.199 L 468.4568 197.8632 L 467.3286 204.4203 L 467.6758 206.156 L 470.1925 209.7816 L 473.9242 211.8259 L 474.7053 213.9858 L 475.2549 218.3058 L 477.9742 223.3585 L 478.842 223.7828 L 480.3174 222.1628 L 482.863 222.4714 L 486.6526 224.7085 L 487.7808 226.4056 L 488.7065 226.7913 L 491.7729 224.2842 L 494.4053 220.5429 L 495.1575 220.08 L 495.765 221.0443 L 496.6617 226.8685 L 495.2732 238.9411 L 496.7774 238.3626 L 497.2981 238.864 L 496.3724 243.0682 L 494.2318 245.0353 L 493.3639 251.0909 L 495.0707 255.9123 L 498.2238 258.2651 L 499.6702 262.6622 L 502.4184 264.6293 L 501.1166 268.1006 L 497.8478 273.1534 L 497.5296 274.3877 L 498.542 281.9475 L 498.0792 283.9147 L 497.2403 297.8001 Z" fill="rgba(244,246,247,1)" fill-opacity="1" stroke="#000000" stroke-width="0.5882352776180919" paint-order="fill" stroke-opacity="1" stroke-dasharray="" stroke-linecap="butt" stroke-linejoin="miter" stroke-miterlimit="10" transform="matrix(0.8500000238418579,0,0,0.8500000238418579,59.999778747558594,39.974998474121094)" clip-path="none"/>
<path d="M 413.291 406.184 L 413.6381 408.4211 L 415.9524 410.6582 L 417.8905 411.7768 L 419.5394 410.3497 L 418.7005 407.9969 L 419.0477 403.9469 L 418.5559 400.8998 L 418.9609 398.1227 L 418.5848 395.8085 L 418.9898 395.2685 L 419.9734 395.8856 L 421.1594 398.5856 L 421.738 398.5084 L 422.114 397.6213 L 422.0273 395.6156 L 420.8123 393.9571 L 420.6966 392.1057 L 418.6427 387.6315 L 417.5145 383.3887 L 419.337 381.7302 L 421.9694 380.843 L 423.4447 380.9202 L 427.2054 382.5787 L 429.4039 382.5787 L 430.7925 381.7302 L 431.5446 380.2259 L 430.3586 376.9474 L 428.97 369.0018 L 427.379 363.0619 L 426.6558 361.3262 L 419.0766 361.5191 L 417.6881 358.9348 L 417.7748 356.9677 L 416.9359 355.5406 L 416.7045 351.5678 L 414.8531 351.2978 L 413.4067 349.5621 L 410.6296 351.1821 L 408.1418 351.375 L 408.2286 353.4192 L 406.6375 354.962 L 405.6829 354.5763 L 404.2654 352.7249 L 401.3726 353.3035 L 398.6244 352.4549 L 397.178 353.1492 L 396.1945 351.9921 L 394.8059 354.0363 L 396.9755 356.2349 L 397.0045 359.5905 L 397.4384 360.7862 L 396.8598 361.8662 L 397.7855 363.1776 L 397.0623 365.6461 L 392.1156 367.1118 L 390.4667 365.9933 L 388.9914 368.0375 L 388.8178 370.5832 L 387.8921 370.2746 L 387.1111 371.5475 L 384.305 371.9717 L 384.1604 373.5532 L 383.4661 374.1317 L 384.739 375.4431 L 393.3306 377.7574 L 396.0209 379.8788 L 397.0623 379.9945 L 398.2773 384.3915 L 399.5212 385.3944 L 400.3601 385.3558 L 403.1372 388.5572 L 405.0465 388.7115 L 406.2615 393.1857 L 407.4186 394.9985 L 410.9189 397.9685 L 413.291 406.184 Z" fill="rgba(244,246,247,1)" fill-opacity="1" stroke="#000000" stroke-width="0.5882352776180919" paint-order="fill" stroke-opacity="1" stroke-dasharray="" stroke-linecap="butt" stroke-linejoin="miter" stroke-miterlimit="10" transform="matrix(0.8500000238418579,0,0,0.8500000238418579,59.999778747558594,39.974998474121094)" clip-path="none"/>
<path d="M 498.571 281.6004 L 497.7899 277.6276 L 497.6742 273.732 L 501.1166 268.1006 L 502.4184 264.6293 L 499.6702 262.6622 L 498.2238 258.2651 L 495.0707 255.9123 L 493.3639 251.0909 L 494.2318 245.0353 L 496.3724 243.0682 L 497.2981 238.864 L 496.7774 238.3626 L 495.2732 238.9411 L 496.6617 226.8685 L 495.3889 220.1957 L 494.2896 220.6586 L 491.7729 224.2842 L 488.8511 226.7528 L 487.7808 226.4056 L 486.6526 224.7085 L 482.863 222.4714 L 480.3174 222.1628 L 478.437 223.7442 L 475.2549 218.3058 L 474.7053 213.9858 L 473.9242 211.8259 L 470.1925 209.7816 L 467.6758 206.156 L 467.3286 204.4203 L 468.4568 197.8632 L 467.7626 194.199 L 466.3451 191.4219 L 462.6134 192.9647 L 458.9684 195.7804 L 457.0302 195.7418 L 454.4556 194.739 L 454.7739 198.9818 L 455.9021 201.2575 L 456.8567 205.2303 L 454.8896 207.9688 L 454.716 211.363 L 453.2407 213.9858 L 453.125 215.2972 L 454.8896 218.1129 L 459.0552 219.7329 L 460.0677 223.0114 L 460.1256 224.9014 L 459.4023 226.5985 L 457.2327 226.7913 L 454.1953 230.957 L 452.315 231.6512 L 451.3893 233.8112 L 448.0625 234.3512 L 445.8929 232.8469 L 443.2315 233.3484 L 442.7108 234.8526 L 443.5208 240.5997 L 441.5248 241.8339 L 437.7063 247.8124 L 436.2888 251.978 L 437.9666 253.8294 L 438.4006 257.4165 L 439.0659 258.3037 L 440.5412 258.1108 L 442.0455 259.4222 L 443.434 259.7693 L 445.4879 262.2764 L 446.1822 264.4364 L 445.7194 266.2878 L 441.1487 267.0592 L 440.7727 269.0649 L 441.7851 271.2634 L 441.0619 273.7705 L 440.9173 277.7819 L 441.3223 278.1676 L 443.868 276.8562 L 445.7483 277.7819 L 446.674 277.2419 L 446.4136 279.209 L 447.889 282.7961 L 449.104 283.259 L 449.6536 282.6032 L 452.315 284.7246 L 453.7903 282.989 L 455.2656 277.2033 L 455.4971 273.8862 L 456.1913 273.0377 L 457.1749 272.8063 L 458.0717 273.5005 L 460.1545 277.3576 L 462.6134 278.0905 L 462.9605 280.7904 L 463.5969 281.7933 L 468.7172 276.0076 L 469.7586 272.8834 L 472.8539 272.8063 L 474.5028 274.0405 L 477.3667 274.5034 L 478.6685 275.5448 L 479.8545 277.6276 L 481.1852 278.5533 L 481.9084 277.7819 L 482.6895 274.7348 L 484.1648 274.9277 L 486.1319 274.2334 L 487.6362 277.6276 L 487.694 280.2119 L 488.4461 281.1761 L 489.4586 281.099 L 490.5868 282.2175 L 494.4343 281.4847 L 496.4014 281.9861 L 497.7321 281.1761 L 498.571 281.6004 Z" fill="rgba(244,246,247,1)" fill-opacity="1" stroke="#000000" stroke-width="0.5882352776180919" paint-order="fill" stroke-opacity="1" stroke-dasharray="" stroke-linecap="butt" stroke-linejoin="miter" stroke-miterlimit="10" transform="matrix(0.8500000238418579,0,0,0.8500000238418579,59.999778747558594,39.974998474121094)" clip-path="none"/>
<path d="M 518.7917 107.2605 L 519.3703 105.1776 L 519.1099 104.2134 L 521.8002 100.0477 L 521.9449 98.2349 L 522.8416 96.0749 L 523.7673 95.2264 L 524.288 93.4907 L 525.0691 93.2207 L 525.908 91.6393 L 527.1519 90.7136 L 527.6148 89.0551 L 527.4412 86.9722 L 524.8088 86.548 L 521.5399 88.6694 L 516.7378 89.7493 L 512.7168 93.2593 L 512.0225 94.8792 L 508.9562 94.7635 L 507.9147 95.6892 L 506.0634 96.1907 L 499.6992 105.7562 L 496.546 107.8776 L 493.9714 107.6462 L 492.7564 108.5719 L 491.5993 109.729 L 489.0826 114.8203 L 487.5204 116.4403 L 487.694 114.0104 L 488.6486 110.6933 L 487.8676 104.9077 L 488.8511 102.7091 L 486.1608 104.2905 L 485.6691 103.7505 L 485.6112 102.2848 L 484.9748 102.0148 L 481.6191 105.5634 L 480.7802 104.2519 L 479.4784 104.9462 L 478.9288 103.2105 L 477.3088 109.3047 L 477.251 113.6246 L 476.6435 115.0903 L 475.9781 115.476 L 474.6185 111.4647 L 472.8828 109.1504 L 473.7796 105.8334 L 473.5482 101.1277 L 473.0275 100.1249 L 471.2629 99.4306 L 470.8289 98.6206 L 471.0025 97.0778 L 472.0439 95.265 L 469.18 93.0279 L 468.3701 89.0551 L 463.1051 85.6994 L 460.762 83.308 L 459.2288 80.1838 L 459.0263 78.2552 L 457.9559 77.0595 L 458.1584 75.5939 L 457.551 74.2825 L 457.7534 71.7753 L 450.5214 73.5882 L 435.9995 72.8553 L 434.8424 80.4538 L 435.1895 81.7266 L 438.1402 83.6552 L 444.0994 84.7737 L 445.054 85.5065 L 446.1533 87.5508 L 447.3393 92.6807 L 448.4965 94.6093 L 451.6207 97.6949 L 452.5753 101.822 L 451.2736 104.5219 L 447.0211 107.569 L 444.0705 112.6218 L 442.5662 118.0989 L 438.1402 120.6445 L 437.3302 121.6088 L 435.5078 127.5101 L 434.1192 129.8629 L 429.5775 131.9458 L 428.4782 135.0314 L 428.5361 138.2328 L 431.1685 140.2385 L 432.8464 142.8999 L 433.4249 147.2969 L 436.6938 158.7525 L 442.3637 161.4138 L 445.1697 166.1195 L 448.9882 168.0866 L 448.9015 169.4751 L 447.2526 171.1723 L 444.3019 178.5007 L 444.7358 181.1235 L 449.2197 181.9335 L 450.3768 184.132 L 451.0132 189.5319 L 451.7653 190.4962 L 452.3439 192.6562 L 454.8028 195.0476 L 459.0841 195.7418 L 462.6134 192.9647 L 467.7047 190.5734 L 469.9611 186.8706 L 471.0604 183.5535 L 474.8499 182.0492 L 476.036 180.815 L 477.3667 178.0379 L 479.3049 176.0322 L 479.6231 173.3322 L 480.867 171.7894 L 486.3923 169.7066 L 491.9175 160.0639 L 490.2108 150.884 L 491.4547 142.7842 L 492.12 141.7042 L 496.6039 139.1199 L 499.8149 134.5686 L 501.2324 130.4029 L 501.3191 122.6888 L 505.4559 117.7517 L 507.1048 113.9718 L 512.1382 109.0347 L 515.7543 106.8748 L 518.7917 107.2605 Z" fill="rgba(244,246,247,1)" fill-opacity="1" stroke="#000000" stroke-width="0.5882352776180919" paint-order="fill" stroke-opacity="1" stroke-dasharray="" stroke-linecap="butt" stroke-linejoin="miter" stroke-miterlimit="10" transform="matrix(0.8500000238418579,0,0,0.8500000238418579,59.999778747558594,39.974998474121094)" clip-path="none"/>
<path d="M 454.4556 337.9909 L 454.8317 342.658 L 454.4267 346.2065 L 455.1788 347.055 L 453.6167 354.2678 L 453.7903 358.3563 L 452.286 362.5219 L 453.2407 365.5304 L 449.3064 365.1447 L 447.5418 364.0647 L 446.5872 364.2576 L 445.3722 365.5304 L 444.4176 365.4147 L 441.2355 360.1305 L 436.4334 357.8163 L 433.6853 354.8849 L 433.3671 352.9949 L 433.6564 349.6778 L 432.6149 343.8922 L 433.1646 342.118 L 432.9332 340.8837 L 427.5236 343.4294 L 426.8872 344.4322 L 426.7425 347.6336 L 422.8951 349.6778 L 420.9859 355.6949 L 417.6881 356.3506 L 417.8616 359.5905 L 419.5105 361.7891 L 422.0851 361.0948 L 423.5315 361.7119 L 426.6558 361.3262 L 428.97 369.0018 L 430.3586 376.9474 L 431.5446 380.2259 L 430.7925 381.7302 L 429.4039 382.5787 L 427.2054 382.5787 L 423.4447 380.9202 L 421.9694 380.843 L 419.337 381.7302 L 417.5145 383.3887 L 418.6427 387.6315 L 420.6966 392.1057 L 420.8123 393.9571 L 421.9116 395.3071 L 422.1719 396.8113 L 421.738 398.5084 L 421.1594 398.5856 L 419.9734 395.8856 L 418.9898 395.2685 L 418.5848 395.8085 L 418.9609 398.1227 L 418.5559 400.8998 L 419.0477 403.9469 L 418.7005 407.5726 L 419.1634 409.8483 L 421.738 412.0854 L 426.974 412.0082 L 425.5565 416.2124 L 424.0812 417.601 L 423.3869 420.9181 L 419.6841 421.3424 L 419.7419 424.428 L 420.5519 426.0094 L 420.6966 428.4008 L 421.9983 428.5551 L 423.6472 430.6379 L 424.1969 428.9408 L 425.2672 428.2465 L 426.569 426.2023 L 427.379 428.1694 L 428.97 427.3594 L 430.0114 427.938 L 431.4 426.4723 L 432.0942 424.5052 L 433.8299 424.1966 L 433.5406 428.4008 L 434.3506 430.3679 L 436.5492 430.0208 L 437.3881 430.9079 L 440.7437 431.525 L 441.1777 434.8421 L 442.7108 438.6992 L 443.6944 440.3192 L 445.3722 440.4349 L 445.6904 443.9448 L 446.5872 446.8762 L 449.5379 443.2506 L 452.8646 441.0906 L 453.1828 437.2721 L 452.5175 428.9408 L 453.5589 428.3237 L 454.6581 421.6123 L 453.9928 420.3009 L 453.8771 414.5539 L 453.2985 412.3939 L 455.3524 411.4297 L 456.3649 412.9339 L 457.0302 411.3139 L 457.146 408.6526 L 455.2367 402.9055 L 456.5963 396.8113 L 456.3649 393.9571 L 454.9764 390.0614 L 455.0921 388.5186 L 454.1664 386.0115 L 451.6786 383.5044 L 456.1045 380.8816 L 455.6417 378.1431 L 456.1335 375.4045 L 458.3031 372.5889 L 458.4767 370.4289 L 455.7285 365.8004 L 462.4109 366.109 L 475.0814 368.4232 L 477.3088 366.7261 L 476.9617 363.5633 L 477.2221 359.6677 L 476.5567 353.8821 L 477.3378 349.0221 L 476.5567 345.3965 L 476.9038 342.8122 L 476.2096 341.578 L 475.1103 342.658 L 474.6185 341.6165 L 474.7342 339.6494 L 473.23 341.3465 L 472.8539 340.9994 L 472.6514 339.688 L 473.3168 337.2966 L 471.61 333.2853 L 472.3911 331.8196 L 471.9282 331.7424 L 471.4364 329.5053 L 471.9861 328.7339 L 471.6968 327.3839 L 470.6554 328.0782 L 470.424 326.7668 L 469.9611 326.6897 L 468.0808 329.1196 L 466.5765 329.4667 L 464.1466 326.9596 L 460.733 326.0339 L 458.3609 330.161 L 458.5634 331.4339 L 458.1584 331.8196 L 456.9145 330.8553 L 457.2327 333.2081 L 455.2367 333.3238 L 455.2367 337.8752 L 454.4556 337.9909 Z" fill="rgba(244,246,247,1)" fill-opacity="1" stroke="#000000" stroke-width="0.5882352776180919" paint-order="fill" stroke-opacity="1" stroke-dasharray="" stroke-linecap="butt" stroke-linejoin="miter" stroke-miterlimit="10" transform="matrix(0.8500000238418579,0,0,0.8500000238418579,59.999778747558594,39.974998474121094)" clip-path="none"/>
<path d="M 347.1035 192.1548 L 346.2357 189.1077 L 346.6985 187.8734 L 346.0043 184.2092 L 344.5579 182.8978 L 345.1653 180.6992 L 344.1529 180.6992 L 342.88 176.7264 L 343.3429 173.9879 L 343.0536 172.7151 L 342.3015 171.7894 L 338.7722 170.0151 L 336.9208 171.1723 L 335.9373 170.7094 L 335.0984 169.8994 L 333.2759 165.8109 L 332.2634 165.7723 L 332.2634 163.7281 L 332.7841 162.571 L 332.3213 159.2539 L 331.1641 156.8625 L 331.5981 154.124 L 332.4948 152.504 L 331.8006 150.6912 L 331.7427 145.947 L 296.5662 157.9039 L 295.5826 157.3253 L 293.9916 157.4411 L 292.7187 156.2454 L 291.1566 156.7468 L 288.6977 155.2811 L 286.8174 156.2839 L 284.6189 154.2011 L 282.0443 153.5068 L 281.5814 152.2726 L 276.4901 148.7241 L 279.6432 162.6867 L 278.6018 179.3107 L 278.2258 207.0817 L 282.6807 210.5916 L 283.375 212.2116 L 285.1106 212.8673 L 287.8009 217.1872 L 290.6648 218.0743 L 292.1402 217.5343 L 294.0205 218.8843 L 297.1736 218.6915 L 297.8101 218.0743 L 299.864 217.7272 L 300.5293 218.1515 L 301.1368 234.6598 L 305.6785 245.6524 L 306.9513 253.9837 L 308.9763 256.7608 L 320.3161 258.8051 L 321.9072 258.5736 L 325.8992 254.4851 L 329.7177 246.9253 L 330.7881 246.1539 L 332.437 246.2696 L 333.6809 247.1953 L 334.9827 250.4738 L 337.1523 253.0966 L 340.074 261.1193 L 341.5783 263.125 L 341.7518 267.7149 L 342.2147 267.2135 L 343.0247 264.1278 L 342.5618 259.7693 L 342.8511 257.8794 L 345.4546 254.6009 L 348.3474 254.0609 L 348.926 253.4437 L 347.8846 250.9366 L 348.1449 249.6252 L 344.2686 243.9168 L 346.2357 242.3739 L 347.3928 239.3654 L 347.4507 237.2826 L 346.3514 233.1169 L 346.6117 231.3427 L 347.6821 230.8027 L 348.2028 234.4669 L 350.8063 231.0727 L 353.0916 230.5713 L 358.183 223.5514 L 356.6787 220.7743 L 356.5051 218.6529 L 354.5959 215.3358 L 352.8891 213.7158 L 350.8352 210.1673 L 348.2317 208.5088 L 346.0043 205.886 L 346.4671 203.8803 L 345.3968 199.5604 L 346.12 196.899 L 345.9175 195.9347 L 346.5539 195.5104 L 346.5539 194.1219 L 347.1325 193.6976 L 347.1035 192.1548 Z" fill="rgba(244,246,247,1)" fill-opacity="1" stroke="#000000" stroke-width="0.5882352776180919" paint-order="fill" stroke-opacity="1" stroke-dasharray="" stroke-linecap="butt" stroke-linejoin="miter" stroke-miterlimit="10" transform="matrix(0.8500000238418579,0,0,0.8500000238418579,59.999778747558594,39.974998474121094)" clip-path="none"/>
<path d="M 428.5361 138.2328 L 422.953 142.977 L 421.4198 146.217 L 418.903 147.2969 L 417.0227 148.8783 L 414.3324 154.0468 L 412.1917 153.854 L 410.9189 154.6254 L 407.8525 152.1954 L 407.4764 151.3854 L 404.5258 149.9969 L 403.9761 148.8012 L 402.9637 148.2998 L 399.3187 144.2113 L 394.6034 141.357 L 393.4174 141.4728 L 387.3714 148.7626 L 386.3589 148.4155 L 386.4746 150.3055 L 385.6936 153.0054 L 385.0861 153.4297 L 384.0447 152.9668 L 382.3958 154.0083 L 380.9783 159.601 L 379.1848 163.8052 L 375.1638 168.048 L 373.862 168.5494 L 373.2545 172.5994 L 374.3538 176.1479 L 373.1677 177.8836 L 374.0066 180.275 L 373.5727 183.2063 L 370.5642 186.6006 L 368.9732 186.9477 L 367.6714 186.2149 L 365.415 187.4491 L 362.1172 194.0062 L 362.0015 196.6675 L 364.1132 199.2518 L 366.1961 199.8689 L 367.9317 202.2603 L 368.5682 202.1832 L 368.4814 203.6489 L 370.3038 205.3845 L 373.052 206.6574 L 373.7752 207.7759 L 376.4945 207.1202 L 376.3498 208.8945 L 377.8541 210.0902 L 377.6227 212.8287 L 379.2716 216.5701 L 379.5608 221.1214 L 380.689 225.3256 L 381.6726 233.9269 L 382.3958 235.4312 L 384.334 236.2797 L 385.8961 235.8555 L 386.6482 234.7369 L 388.4128 234.5441 L 390.756 236.0483 L 391.3346 234.6983 L 392.6653 234.6983 L 395.3266 231.8441 L 398.1616 231.497 L 398.7691 227.8713 L 396.6573 225.2099 L 396.8888 223.32 L 396.0209 221.8928 L 395.5581 219.1543 L 397.3227 218.8072 L 400.3891 216.7244 L 400.5626 215.1815 L 401.5173 213.6773 L 404.4968 213.7544 L 406.5218 212.7901 L 406.9268 211.8644 L 409.27 211.3244 L 413.667 212.0959 L 414.5927 212.8287 L 414.9688 213.9087 L 417.9195 215.9144 L 418.903 219.54 L 421.5066 221.6228 L 429.6643 215.3358 L 433.6564 218.0358 L 434.0324 217.7272 L 433.8589 214.1401 L 436.3177 211.7873 L 436.8384 210.1287 L 436.4913 206.3488 L 435.4499 203.7646 L 435.9127 199.6375 L 435.7102 196.5904 L 439.413 189.2234 L 440.8884 187.2948 L 442.0744 186.6777 L 443.5208 183.9006 L 444.4176 180.9692 L 444.3019 178.5007 L 447.2526 171.1723 L 448.699 169.8608 L 449.075 168.588 L 448.6411 167.8166 L 445.1697 166.1195 L 442.3637 161.4138 L 436.6938 158.7525 L 433.4249 147.2969 L 432.8464 142.8999 L 431.1685 140.2385 L 428.5361 138.2328 Z" fill="rgba(244,246,247,1)" fill-opacity="1" stroke="#000000" stroke-width="0.5882352776180919" paint-order="fill" stroke-opacity="1" stroke-dasharray="" stroke-linecap="butt" stroke-linejoin="miter" stroke-miterlimit="10" transform="matrix(0.8500000238418579,0,0,0.8500000238418579,59.999778747558594,39.974998474121094)" clip-path="none"/>
<path d="M 449.104 283.259 L 448.265 283.2204 L 446.9922 281.0604 L 446.4136 279.209 L 446.674 277.2419 L 445.7483 277.7819 L 443.868 276.8562 L 441.3223 278.1676 L 440.9173 277.7819 L 441.0619 273.7705 L 441.7851 271.2634 L 440.7727 269.0649 L 441.1487 267.0592 L 445.4879 266.3649 L 446.1533 265.555 L 445.864 263.0479 L 444.4755 260.695 L 440.657 258.1494 L 438.9502 258.2265 L 438.3716 257.2622 L 437.822 253.5209 L 436.2888 251.978 L 434.987 254.7166 L 431.0528 255.1023 L 427.6393 256.3751 L 424.8911 255.7966 L 421.6223 252.7495 L 420.8412 253.4823 L 420.0312 256.4523 L 419.6262 256.6451 L 417.3409 252.8266 L 415.2292 245.3439 L 413.5513 242.2968 L 407.6789 243.7239 L 406.6375 244.8039 L 406.1168 243.7239 L 406.2036 241.4482 L 404.9308 241.9496 L 403.7736 245.3824 L 404.4968 250.8595 L 404.2076 255.3337 L 403.5711 255.7194 L 401.5173 254.0994 L 397.7277 256.6837 L 397.178 260.1551 L 394.5456 263.125 L 393.6488 266.4035 L 392.5495 267.3292 L 389.4832 267.4835 L 388.4128 270.5692 L 388.4128 271.7263 L 390.0039 273.6934 L 391.9131 273.8862 L 393.6199 276.3934 L 395.6738 278.0905 L 397.8145 278.2447 L 398.798 276.8176 L 401.199 276.3548 L 408.2575 279.3633 L 408.7782 285.9975 L 408.46 297.4916 L 409.5303 296.4502 L 412.9438 300.3458 L 413.9274 300.7701 L 413.9853 299.613 L 415.0556 297.3373 L 416.3284 296.4502 L 418.903 298.3787 L 420.4073 298.6873 L 421.7091 300.8472 L 422.9819 301.8115 L 426.0772 301.7729 L 430.0693 304.4729 L 430.4743 297.0673 L 432.0364 296.7587 L 436.4334 298.4558 L 438.7477 301.8115 L 439.9048 300.7701 L 441.7851 301.1558 L 442.8844 298.9958 L 442.6819 291.706 L 443.0291 290.4717 L 443.2894 289.9317 L 445.6904 291.0888 L 446.1244 288.4274 L 449.104 283.259 Z" fill="rgba(244,246,247,1)" fill-opacity="1" stroke="#000000" stroke-width="0.5882352776180919" paint-order="fill" stroke-opacity="1" stroke-dasharray="" stroke-linecap="butt" stroke-linejoin="miter" stroke-miterlimit="10" transform="matrix(0.8500000238418579,0,0,0.8500000238418579,59.999778747558594,39.974998474121094)" clip-path="none"/>
<path d="M 341.7518 267.7149 L 341.3758 268.0621 L 341.7518 268.872 L 341.4625 270.222 L 342.2725 272.382 L 341.9543 272.6906 L 342.1279 276.5091 L 343.3139 280.6361 L 344.2107 280.9061 L 344.8182 281.909 L 345.4546 284.2618 L 345.0496 286.0746 L 346.2935 289.546 L 345.686 290.5488 L 346.93 294.1359 L 348.3185 293.4416 L 349.5624 294.2902 L 350.6038 293.7116 L 355.753 296.5273 L 356.2448 298.3016 L 356.968 298.4173 L 358.183 297.3759 L 361.1915 299.073 L 362.3486 301.7729 L 362.8115 300.5387 L 364.1711 299.3044 L 365.6754 299.343 L 366.1382 299.8444 L 366.9482 305.5143 L 367.845 308.1371 L 369.4649 302.7372 L 370.1014 294.753 L 370.651 293.6731 L 371.7792 293.4802 L 371.2585 291.5131 L 372.2131 290.2017 L 371.7503 289.0446 L 370.7667 288.9674 L 370.1303 287.9646 L 370.0146 286.3832 L 375.6555 286.9232 L 376.6391 287.6946 L 376.8705 284.4546 L 378.6351 282.0247 L 379.098 280.1733 L 380.3997 279.0547 L 382.1933 273.7705 L 382.1644 272.5363 L 385.3175 270.9934 L 388.4128 271.7263 L 388.6153 269.1806 L 389.3675 267.5606 L 392.5495 267.3292 L 393.8224 266.1721 L 394.4588 263.2793 L 396.773 260.965 L 397.6987 258.1879 L 397.7277 256.6837 L 396.4838 255.218 L 396.8598 253.868 L 396.0788 251.5538 L 395.9341 244.7653 L 394.5456 239.0183 L 393.2149 237.3983 L 388.6732 234.5826 L 386.6482 234.7369 L 385.8961 235.8555 L 384.334 236.2797 L 382.0486 234.9683 L 380.689 225.3256 L 379.5608 221.1214 L 379.2716 216.5701 L 377.6227 212.8287 L 377.8541 210.0902 L 376.3498 208.8945 L 376.4945 207.1202 L 373.7752 207.7759 L 373.052 206.6574 L 370.4196 205.4617 L 368.4814 203.6489 L 368.5682 202.1832 L 367.9317 202.2603 L 366.1961 199.8689 L 364.1132 199.2518 L 362.6379 197.4004 L 362.0593 197.1304 L 361.1626 197.7861 L 358.0962 197.3232 L 347.1035 192.1548 L 347.1325 193.6976 L 346.5539 194.1219 L 346.5539 195.5104 L 345.9175 195.9347 L 346.12 196.899 L 345.3968 199.5604 L 346.4671 203.8803 L 346.0043 205.886 L 348.2317 208.5088 L 350.8352 210.1673 L 352.8891 213.7158 L 354.5959 215.3358 L 356.5051 218.6529 L 356.6787 220.7743 L 358.183 223.5514 L 353.0916 230.5713 L 350.8063 231.0727 L 348.2028 234.4669 L 347.6821 230.8027 L 346.6117 231.3427 L 346.3514 233.1169 L 347.4507 237.2826 L 347.3928 239.3654 L 346.2357 242.3739 L 344.2686 243.9168 L 348.1449 249.6252 L 347.8846 250.9366 L 348.926 253.4437 L 348.3474 254.0609 L 345.4546 254.6009 L 342.8511 257.8794 L 342.5618 259.7693 L 342.9957 264.5907 L 342.6197 266.4421 L 341.7518 267.7149 Z" fill="rgba(244,246,247,1)" fill-opacity="1" stroke="#000000" stroke-width="0.5882352776180919" paint-order="fill" stroke-opacity="1" stroke-dasharray="" stroke-linecap="butt" stroke-linejoin="miter" stroke-miterlimit="10" transform="matrix(0.8500000238418579,0,0,0.8500000238418579,59.999778747558594,39.974998474121094)" clip-path="none"/>
<path d="M 388.4128 271.7263 L 385.3175 270.9934 L 382.1644 272.5363 L 382.1933 273.7705 L 380.3997 279.0547 L 379.098 280.1733 L 378.6351 282.0247 L 376.668 285.0718 L 376.6391 287.6946 L 377.2466 288.3117 L 378.7508 293.1331 L 383.8711 298.1473 L 386.5904 302.4672 L 388.731 302.3129 L 390.0907 304.3957 L 392.2024 304.8972 L 394.372 306.5943 L 405.9432 305.2829 L 405.6829 302.4672 L 408.46 297.4916 L 408.5757 279.8647 L 404.6993 277.4733 L 401.199 276.3548 L 398.798 276.8176 L 397.8145 278.2447 L 395.6738 278.0905 L 393.6199 276.3934 L 391.9131 273.8862 L 390.0039 273.6934 L 388.4128 271.7263 Z" fill="rgba(244,246,247,1)" fill-opacity="1" stroke="#000000" stroke-width="0.5882352776180919" paint-order="fill" stroke-opacity="1" stroke-dasharray="" stroke-linecap="butt" stroke-linejoin="miter" stroke-miterlimit="10" transform="matrix(0.8500000238418579,0,0,0.8500000238418579,59.999778747558594,39.974998474121094)" clip-path="none"/>
<path d="M 368.8285 305.63 L 371.6924 309.5257 L 373.3124 316.6998 L 374.8456 317.2012 L 376.5812 318.7055 L 382.8876 327.3068 L 384.6232 328.1553 L 387.4582 328.3482 L 388.2682 329.6596 L 389.0203 329.8525 L 389.9171 329.0425 L 390.0328 327.1911 L 393.0124 322.4469 L 396.5127 322.794 L 397.8723 323.7197 L 399.8973 326.4582 L 401.2858 326.4582 L 401.4883 325.2625 L 400.4758 320.1326 L 400.6494 318.2426 L 405.9722 305.2829 L 394.5745 306.6714 L 392.2024 304.8972 L 390.3221 304.5115 L 388.731 302.3129 L 386.5904 302.4672 L 383.8711 298.1473 L 379.098 293.6731 L 377.1309 288.1189 L 375.6555 286.9232 L 371.1138 286.1903 L 370.0146 286.3832 L 370.1303 287.9646 L 370.7667 288.9674 L 371.7503 289.0446 L 372.2131 290.2017 L 371.2585 291.5131 L 371.7792 293.4802 L 370.651 293.6731 L 370.1014 294.753 L 369.7831 300.6158 L 368.8285 305.63 Z" fill="rgba(244,246,247,1)" fill-opacity="1" stroke="#000000" stroke-width="0.5882352776180919" paint-order="fill" stroke-opacity="1" stroke-dasharray="" stroke-linecap="butt" stroke-linejoin="miter" stroke-miterlimit="10" transform="matrix(0.8500000238418579,0,0,0.8500000238418579,59.999778747558594,39.974998474121094)" clip-path="none"/>
<path d="M 278.2258 207.0817 L 273.6551 206.2331 L 273.0476 205.076 L 276.114 216.8786 L 272.7583 229.1441 L 270.1259 233.5412 L 269.258 236.6654 L 268.5927 236.974 L 267.9852 238.6711 L 265.6999 239.5197 L 265.3528 240.7925 L 263.9642 240.9082 L 263.0964 242.9139 L 260.3771 245.4982 L 260.1746 246.3853 L 261.0135 247.2338 L 261.0714 248.1981 L 260.6375 248.9695 L 259.2489 249.4324 L 258.4389 252.5952 L 257.0504 254.678 L 252.7112 254.5237 L 250.6284 256.568 L 250.5705 260.4636 L 249.8184 263.2793 L 249.7316 266.1721 L 256.009 277.2419 L 256.4718 283.0275 L 258.005 288.736 L 257.629 291.2817 L 258.9018 297.2216 L 258.2364 300.3458 L 262.3732 310.2585 L 263.4435 320.5955 L 265.8156 320.2098 L 267.7249 321.2512 L 271.1962 321.3669 L 274.3205 317.5098 L 279.0068 322.4469 L 282.3335 323.9126 L 285.8049 322.6397 L 287.0777 323.2183 L 287.6852 319.4383 L 289.8259 318.4741 L 290.2598 319.9398 L 291.0698 319.5155 L 291.9377 320.4798 L 292.5162 322.3697 L 293.413 321.9069 L 294.7148 323.9126 L 295.5826 324.2983 L 298.6201 322.794 L 304.6371 324.1826 L 312.6502 323.5654 L 313.4312 324.4911 L 315.8033 331.8196 L 316.4108 332.2824 L 317.4522 330.5853 L 318.0308 330.8553 L 318.6961 333.131 L 319.6508 334.0567 L 321.0393 333.0153 L 323.585 335.6381 L 325.4364 333.1695 L 327.1142 332.4367 L 329.0813 334.8667 L 329.9781 334.8667 L 331.1641 336.1009 L 332.437 336.1781 L 334.2884 337.6052 L 335.0405 339.1094 L 336.5158 339.8809 L 336.7473 340.768 L 338.1937 341.3465 L 340.4501 342.118 L 341.5204 341.0766 L 344.9339 342.6965 L 349.0706 341.0766 L 349.736 339.418 L 347.8267 336.6409 L 345.0786 337.0652 L 343.1693 336.5638 L 342.7065 334.7124 L 343.9504 333.131 L 343.2561 332.9767 L 342.9957 332.051 L 344.5868 330.7782 L 346.4092 330.3924 L 348.8681 328.3482 L 351.732 327.8468 L 352.6288 329.3125 L 353.3809 328.541 L 353.0338 326.6511 L 354.2198 325.3011 L 354.7116 325.0697 L 355.8109 326.3425 L 356.2448 326.1497 L 355.8109 322.3312 L 354.6538 321.3669 L 349.7938 322.254 L 347.9135 323.1797 L 346.0621 322.2926 L 346.4092 317.2012 L 348.116 315.9284 L 345.715 312.6499 L 345.7439 308.7928 L 346.3225 307.7128 L 346.496 305.09 L 347.3639 304.6272 L 347.7689 303.3929 L 347.5664 299.4587 L 346.6696 296.4887 L 348.5789 295.563 L 349.5624 294.2902 L 348.8392 293.4031 L 346.93 294.1359 L 345.686 290.5488 L 346.2935 289.546 L 345.0496 286.0746 L 345.4546 284.2618 L 344.5868 281.3304 L 343.3139 280.6361 L 342.8222 279.5176 L 342.1279 276.5091 L 341.9543 272.6906 L 342.2725 272.382 L 341.4625 270.222 L 341.5783 263.125 L 340.074 261.1193 L 337.0365 252.8266 L 334.9827 250.4738 L 333.5073 246.9638 L 330.9906 246.1539 L 329.5442 247.1567 L 325.205 255.488 L 321.9072 258.5736 L 311.493 257.4551 L 308.5713 256.4908 L 306.8356 253.6366 L 305.5917 245.3824 L 301.1368 234.6598 L 300.5293 218.1515 L 299.864 217.7272 L 297.8101 218.0743 L 297.1736 218.6915 L 294.0205 218.8843 L 292.1402 217.5343 L 290.6648 218.0743 L 287.8009 217.1872 L 285.1106 212.8673 L 283.375 212.2116 L 282.6807 210.5916 L 278.2258 207.0817 Z" fill="rgba(244,246,247,1)" fill-opacity="1" stroke="#000000" stroke-width="0.5882352776180919" paint-order="fill" stroke-opacity="1" stroke-dasharray="" stroke-linecap="butt" stroke-linejoin="miter" stroke-miterlimit="10" transform="matrix(0.8500000238418579,0,0,0.8500000238418579,59.999778747558594,39.974998474121094)" clip-path="none"/>
<path d="M 527.4412 86.9722 L 527.6437 85.5837 L 526.5734 85.738 L 524.5484 82.8066 L 523.0152 79.1809 L 521.4242 77.6381 L 520.3249 73.0482 L 515.7543 68.1497 L 510.5472 66.2597 L 506.8444 63.2126 L 504.588 60.0498 L 502.592 59.0856 L 498.6288 55.3442 L 490.6736 53.2999 L 489.1693 55.1899 L 480.9827 59.5098 L 473.6639 62.0169 L 469.585 61.8241 L 463.8573 65.3726 L 459.4891 70.4639 L 457.7534 71.7753 L 457.551 74.2825 L 458.1584 75.5939 L 457.9559 77.0595 L 459.0263 78.2552 L 459.2288 80.1838 L 460.762 83.308 L 463.1051 85.6994 L 468.3701 89.0551 L 469.18 93.0279 L 472.0439 95.265 L 471.0025 97.0778 L 470.8289 98.6206 L 471.2629 99.4306 L 473.0275 100.1249 L 473.5482 101.1277 L 473.7796 105.8334 L 472.8828 109.1504 L 474.6185 111.4647 L 475.9781 115.476 L 476.6435 115.0903 L 477.251 113.6246 L 477.3088 109.3047 L 478.9288 103.2105 L 479.4784 104.9462 L 480.7802 104.2519 L 481.6191 105.5634 L 484.9748 102.0148 L 485.6112 102.2848 L 485.6691 103.7505 L 486.1608 104.2905 L 488.8511 102.7091 L 487.8676 104.9077 L 488.6486 110.6933 L 487.694 114.0104 L 487.5204 116.4403 L 489.0826 114.8203 L 491.5993 109.729 L 492.7564 108.5719 L 493.9714 107.6462 L 496.546 107.8776 L 499.6992 105.7562 L 506.0634 96.1907 L 507.9147 95.6892 L 508.9562 94.7635 L 512.0225 94.8792 L 512.7168 93.2593 L 516.7378 89.7493 L 521.5399 88.6694 L 524.8088 86.548 L 527.4412 86.9722 Z" fill="rgba(244,246,247,1)" fill-opacity="1" stroke="#000000" stroke-width="0.5882352776180919" paint-order="fill" stroke-opacity="1" stroke-dasharray="" stroke-linecap="butt" stroke-linejoin="miter" stroke-miterlimit="10" transform="matrix(0.8500000238418579,0,0,0.8500000238418579,59.999778747558594,39.974998474121094)" clip-path="none"/>
<path d="M 396.8309 428.7094 L 397.583 440.4735 L 399.1741 446.7219 L 400.794 448.1105 L 402.3272 454.5904 L 400.8519 463.0759 L 399.0584 466.2002 L 401.8065 468.8616 L 401.7776 473.5286 L 402.7033 474.5315 L 403.224 476.8071 L 405.3647 478.3885 L 407.7368 479.0442 L 408.0261 479.6999 L 408.6046 477.8485 L 408.2575 475.4572 L 410.5428 474.6472 L 415.3449 474.9943 L 421.1594 470.4044 L 427.1475 466.663 L 428.2757 464.3102 L 428.5361 461.726 L 429.8378 459.4117 L 434.3796 459.6046 L 435.2185 463.1145 L 437.417 464.0016 L 441.6116 459.2189 L 443.9258 458.8717 L 443.5787 455.1689 L 443.9837 453.4718 L 445.864 452.4304 L 447.9179 452.199 L 448.4965 451.389 L 448.1783 449.3062 L 447.2236 449.0362 L 446.7029 447.8405 L 445.6904 443.9448 L 445.3722 440.4349 L 443.6944 440.3192 L 442.7108 438.6992 L 441.1777 434.8421 L 440.7437 431.525 L 437.3881 430.9079 L 436.5492 430.0208 L 434.5821 430.6765 L 433.5406 428.4008 L 433.8299 424.1966 L 432.0942 424.5052 L 431.4 426.4723 L 430.0114 427.938 L 428.97 427.3594 L 427.379 428.1694 L 426.569 426.2023 L 425.2672 428.2465 L 424.1969 428.9408 L 423.6472 430.6379 L 421.9983 428.5551 L 420.6966 428.4008 L 420.5519 426.0094 L 419.7419 424.428 L 419.6841 421.3424 L 423.3869 420.9181 L 424.0812 417.601 L 425.5565 416.2124 L 426.974 412.0082 L 421.738 412.0854 L 419.5394 410.3497 L 417.8905 411.7768 L 413.6381 408.4211 L 413.667 406.9169 L 413.1174 406.1069 L 411.7578 408.0354 L 411.1214 412.6254 L 409.1832 414.9782 L 407.3897 414.8625 L 407.245 420.7252 L 406.5507 423.6566 L 406.6375 427.8994 L 403.4554 427.668 L 402.2405 426.7037 L 396.8309 428.7094 Z" fill="rgba(244,246,247,1)" fill-opacity="1" stroke="#000000" stroke-width="0.5882352776180919" paint-order="fill" stroke-opacity="1" stroke-dasharray="" stroke-linecap="butt" stroke-linejoin="miter" stroke-miterlimit="10" transform="matrix(0.8500000238418579,0,0,0.8500000238418579,59.999778747558594,39.974998474121094)" clip-path="none"/>
<path d="M 476.2096 341.578 L 476.9038 342.8122 L 476.5567 345.3965 L 477.3378 347.7493 L 476.5567 353.8821 L 477.2221 359.6677 L 476.9617 363.5633 L 477.3088 366.7261 L 475.0814 368.4232 L 462.4109 366.109 L 455.7285 365.8004 L 458.4767 370.4289 L 458.3031 372.5889 L 456.1335 375.4045 L 455.6417 378.1431 L 456.1045 380.8816 L 451.6786 383.5044 L 453.096 385.3944 L 453.9639 385.6258 L 454.8896 387.7858 L 454.8896 389.6757 L 456.307 393.5714 L 456.5674 396.0399 L 455.2367 402.9055 L 457.146 408.6526 L 456.9724 411.6997 L 456.1045 413.0111 L 455.3524 411.4297 L 453.2985 412.3939 L 453.8771 414.5539 L 453.9928 420.3009 L 454.6581 421.6123 L 454.1953 423.7723 L 457.0302 422.4995 L 461.0223 425.0837 L 467.8494 411.5454 L 469.9032 411.6611 L 471.6679 409.424 L 471.6389 408.7683 L 478.842 406.0683 L 480.7223 404.0241 L 482.3712 403.5998 L 482.2266 401.7484 L 480.6356 400.7456 L 480.5199 399.8584 L 482.3134 395.4228 L 483.6152 393.61 L 483.3548 391.18 L 488.4172 382.9644 L 487.5494 382.4244 L 484.1359 383.2344 L 483.268 382.4244 L 482.863 378.3745 L 483.0366 371.3546 L 482.5159 368.5775 L 483.0945 365.4147 L 483.0077 355.5406 L 483.8177 353.9978 L 483.3259 350.3335 L 490.124 331.3567 L 488.5619 329.6596 L 486.5658 329.3125 L 484.8591 327.8468 L 481.4456 328.3482 L 477.1063 327.5768 L 476.8171 328.0782 L 477.3088 329.1968 L 478.6395 330.8939 L 481.3588 332.591 L 481.4166 333.2081 L 478.3502 334.0567 L 477.3378 335.9852 L 476.5567 335.4838 L 476.3542 333.5167 L 476.0071 334.0181 L 476.6724 340.228 L 476.2096 341.578 Z" fill="rgba(244,246,247,1)" fill-opacity="1" stroke="#000000" stroke-width="0.5882352776180919" paint-order="fill" stroke-opacity="1" stroke-dasharray="" stroke-linecap="butt" stroke-linejoin="miter" stroke-miterlimit="10" transform="matrix(0.8500000238418579,0,0,0.8500000238418579,59.999778747558594,39.974998474121094)" clip-path="none"/>
<path d="M 287.6852 319.4383 L 286.8752 323.3726 L 288.5531 327.1139 L 291.3302 328.2711 L 292.603 332.5138 L 294.3966 332.861 L 295.4669 334.211 L 295.5247 335.5224 L 298.3018 336.8338 L 299.864 339.3023 L 301.8889 339.4566 L 305.0999 341.0766 L 307.6167 341.3851 L 309.9888 344.7408 L 311.898 345.6665 L 316.4398 345.9365 L 316.8737 346.2836 L 317.134 348.945 L 318.1754 350.3721 L 323.0064 349.5236 L 324.9157 353.2263 L 327.201 353.9592 L 330.6434 353.8821 L 332.5816 355.8106 L 335.5901 356.1577 L 339.0037 359.9762 L 340.5079 363.9105 L 345.4835 363.8333 L 346.7853 363.0619 L 345.2521 362.2133 L 342.7354 362.2905 L 341.9543 360.8248 L 343.2561 360.0148 L 343.3718 359.3977 L 341.3179 359.1662 L 340.3054 357.7391 L 340.5079 356.4277 L 342.4172 355.502 L 341.4047 353.3035 L 342.3015 350.9507 L 342.3015 347.6336 L 340.5368 342.2337 L 336.7473 340.768 L 336.5158 339.8809 L 335.0405 339.1094 L 334.1148 337.4123 L 332.2634 336.1009 L 330.9906 335.9852 L 329.9781 334.8667 L 329.0813 334.8667 L 327.606 332.7067 L 326.4199 332.4753 L 323.4114 335.6381 L 321.184 333.0924 L 319.6508 334.0567 L 319.0722 333.6324 L 318.1754 331.0096 L 317.5969 330.6239 L 316.2373 332.1667 L 315.5141 331.2024 L 313.4312 324.4911 L 312.6502 323.5654 L 304.6371 324.1826 L 298.6201 322.794 L 295.5826 324.2983 L 294.7148 323.9126 L 293.413 321.9069 L 292.5162 322.3697 L 291.9377 320.4798 L 291.0698 319.5155 L 290.2598 319.9398 L 289.8259 318.4741 L 287.6852 319.4383 Z" fill="rgba(244,246,247,1)" fill-opacity="1" stroke="#000000" stroke-width="0.5882352776180919" paint-order="fill" stroke-opacity="1" stroke-dasharray="" stroke-linecap="butt" stroke-linejoin="miter" stroke-miterlimit="10" transform="matrix(0.8500000238418579,0,0,0.8500000238418579,59.999778747558594,39.974998474121094)" clip-path="none"/>
<path d="M 454.4556 194.739 L 452.2571 192.5019 L 451.7653 190.4962 L 451.0711 189.6862 L 450.4636 184.4792 L 449.3354 182.0106 L 444.8515 181.1621 L 444.4755 180.545 L 444.0994 182.5506 L 442.248 186.3691 L 440.8884 187.2948 L 439.413 189.2234 L 435.6524 196.7833 L 435.9127 199.6375 L 435.4499 203.7646 L 436.4913 206.3488 L 436.8384 210.1287 L 436.3177 211.7873 L 433.8589 214.1401 L 434.2349 216.5701 L 433.8878 217.9972 L 429.6643 215.3358 L 426.7136 218.0743 L 423.9944 219.3857 L 421.3908 221.6228 L 418.903 219.54 L 418.0063 216.0301 L 414.9688 213.9087 L 414.0431 212.3273 L 409.4725 211.2859 L 406.9268 211.8644 L 406.5218 212.7901 L 404.4968 213.7544 L 401.5173 213.6773 L 400.5626 215.1815 L 400.3891 216.7244 L 397.3227 218.8072 L 395.6738 219 L 396.0209 221.8928 L 396.8888 223.32 L 396.6573 225.2099 L 398.7691 227.8713 L 398.4509 231.0341 L 397.8723 231.6898 L 395.3266 231.8441 L 392.6653 234.6983 L 391.3346 234.6983 L 390.756 236.0483 L 393.7935 237.8611 L 394.5456 239.0183 L 395.9341 244.7653 L 396.0788 251.5538 L 396.8598 253.868 L 396.5416 255.3723 L 397.7277 256.6837 L 401.5173 254.0994 L 403.5711 255.7194 L 404.2076 255.3337 L 404.4968 250.8595 L 403.8026 244.9582 L 404.6415 242.3353 L 405.8565 241.2168 L 406.2325 241.6025 L 406.1457 243.9168 L 406.6375 244.8039 L 407.6789 243.7239 L 413.8695 242.5282 L 415.9813 247.581 L 416.2127 249.8181 L 417.2541 252.6337 L 419.7419 256.7223 L 420.7544 253.6366 L 421.6223 252.7495 L 424.8911 255.7966 L 427.5236 256.3751 L 431.0528 255.1023 L 435.1028 254.6009 L 437.9666 247.3496 L 441.6694 241.6796 L 443.5208 240.5997 L 442.7108 234.8526 L 443.2315 233.3484 L 445.8929 232.8469 L 448.0625 234.3512 L 451.3893 233.8112 L 452.315 231.6512 L 454.1953 230.957 L 457.2327 226.7913 L 459.4023 226.5985 L 460.0966 225.0556 L 460.0677 223.0114 L 459.0552 219.7329 L 454.8896 218.1129 L 453.125 215.2972 L 453.2407 213.9858 L 454.716 211.363 L 454.8896 207.9688 L 456.8567 205.2303 L 455.9021 201.2575 L 454.7739 198.9818 L 454.4556 194.739 Z" fill="rgba(244,246,247,1)" fill-opacity="1" stroke="#000000" stroke-width="0.5882352776180919" paint-order="fill" stroke-opacity="1" stroke-dasharray="" stroke-linecap="butt" stroke-linejoin="miter" stroke-miterlimit="10" transform="matrix(0.8500000238418579,0,0,0.8500000238418579,59.999778747558594,39.974998474121094)" clip-path="none"/>
<path d="M 384.3629 375.096 L 383.4661 374.1317 L 384.1604 373.5532 L 384.305 371.9717 L 387.1111 371.5475 L 387.8921 370.2746 L 388.8178 370.5832 L 388.9914 368.0375 L 390.4667 365.9933 L 391.5949 367.1504 L 395.1241 365.9161 L 396.5995 366.0318 L 397.7855 363.1776 L 396.8598 361.8662 L 397.4384 360.7862 L 397.0045 359.5905 L 396.9755 356.2349 L 394.8059 354.0363 L 396.1945 351.9921 L 395.7316 350.0635 L 397.4962 343.7765 L 396.7441 338.3766 L 395.182 337.0266 L 394.6613 333.131 L 390.1774 326.9596 L 389.9749 328.9653 L 389.0203 329.8525 L 388.2682 329.6596 L 387.4582 328.3482 L 383.1479 327.5382 L 381.3833 325.7254 L 376.5812 318.7055 L 374.8456 317.2012 L 373.3124 316.6998 L 372.4735 311.7242 L 370.9403 308.0985 L 368.8285 305.63 L 368.0764 307.9057 L 367.4689 307.79 L 366.1382 299.8444 L 365.6754 299.343 L 364.1711 299.3044 L 362.8115 300.5387 L 362.3486 301.7729 L 360.8154 298.7258 L 359.3401 298.4173 L 358.183 297.3759 L 356.968 298.4173 L 356.2448 298.3016 L 355.753 296.5273 L 350.6038 293.7116 L 346.6696 296.4887 L 347.5664 299.4587 L 347.7689 303.3929 L 347.3639 304.6272 L 346.496 305.09 L 346.3225 307.7128 L 345.7439 308.7928 L 345.715 312.6499 L 348.116 315.9284 L 346.4092 317.2012 L 346.0621 322.2926 L 347.9135 323.1797 L 349.7938 322.254 L 355.1745 321.4055 L 355.8109 322.3312 L 356.1002 325.1468 L 358.6748 323.2954 L 362.0593 322.6397 L 364.0843 326.3811 L 363.9397 331.0096 L 365.1546 333.7867 L 366.5721 333.8638 L 366.8325 334.5195 L 367.0639 338.5309 L 369.5806 340.1509 L 369.5806 340.8066 L 368.3078 341.7708 L 366.7746 344.2779 L 362.2618 347.2864 L 362.3776 350.6807 L 363.2165 352.3007 L 363.3033 353.6121 L 361.2783 359.552 L 360.2947 360.9791 L 361.2204 361.2491 L 363.39 363.949 L 364.8364 364.6047 L 366.225 367.3047 L 367.2085 367.5361 L 368.5392 369.4261 L 372.0974 371.1618 L 377.1598 374.9417 L 378.5194 374.9803 L 379.503 376.3688 L 381.1808 376.0988 L 381.8462 374.4789 L 383.119 375.366 L 384.3629 375.096 Z" fill="rgba(244,246,247,1)" fill-opacity="1" stroke="#000000" stroke-width="0.5882352776180919" paint-order="fill" stroke-opacity="1" stroke-dasharray="" stroke-linecap="butt" stroke-linejoin="miter" stroke-miterlimit="10" transform="matrix(0.8500000238418579,0,0,0.8500000238418579,59.999778747558594,39.974998474121094)" clip-path="none"/>
<path d="M 377.1598 374.9417 L 372.0974 371.1618 L 368.1053 369.0789 L 367.2085 367.5361 L 366.225 367.3047 L 364.8364 364.6047 L 363.39 363.949 L 361.2204 361.2491 L 360.2947 360.9791 L 361.2783 359.552 L 363.3033 353.6121 L 363.2165 352.3007 L 362.3776 350.6807 L 362.2618 347.2864 L 366.7746 344.2779 L 368.3078 341.7708 L 369.5806 340.8066 L 369.2914 339.6109 L 367.3821 339.148 L 366.5721 333.8638 L 365.1546 333.7867 L 363.9397 331.0096 L 364.0843 326.3811 L 362.5222 322.9869 L 362.0593 322.6397 L 358.2119 323.5268 L 356.1002 325.1468 L 356.2448 326.1497 L 355.8109 326.3425 L 354.7116 325.0697 L 354.2198 325.3011 L 353.0338 326.6511 L 353.3809 328.541 L 352.6288 329.3125 L 351.732 327.8468 L 348.8681 328.3482 L 346.4092 330.3924 L 344.5868 330.7782 L 342.9957 332.051 L 343.2561 332.9767 L 343.9504 333.131 L 342.7065 334.7124 L 343.1693 336.5638 L 345.0786 337.0652 L 347.6532 336.5252 L 349.7938 339.6494 L 349.0706 341.0766 L 345.2521 342.6965 L 341.5204 341.0766 L 340.4501 342.118 L 342.3015 347.6336 L 342.3015 350.9507 L 341.4047 353.3035 L 342.4172 355.502 L 340.5079 356.4277 L 340.3054 357.7391 L 341.3179 359.1662 L 343.3718 359.3977 L 343.2561 360.0148 L 341.9543 360.8248 L 342.3593 361.9433 L 343.285 362.4833 L 345.7439 362.3291 L 347.1614 363.4862 L 348.2317 362.4448 L 349.2153 362.6376 L 349.8517 363.6019 L 351.2402 363.7947 L 353.0338 363.1005 L 354.3934 364.6433 L 355.377 364.6433 L 356.7655 366.9961 L 357.4019 370.1204 L 358.6458 371.0461 L 359.9187 373.7074 L 361.5386 374.1703 L 361.6833 375.4431 L 362.4643 376.5231 L 365.0679 377.3331 L 366.4275 379.1073 L 367.44 381.8844 L 369.7542 383.3501 L 370.651 382.6944 L 373.1388 378.7602 L 377.3623 378.0659 L 377.1598 374.9417 Z" fill="rgba(244,246,247,1)" fill-opacity="1" stroke="#000000" stroke-width="0.5882352776180919" paint-order="fill" stroke-opacity="1" stroke-dasharray="" stroke-linecap="butt" stroke-linejoin="miter" stroke-miterlimit="10" transform="matrix(0.8500000238418579,0,0,0.8500000238418579,59.999778747558594,39.974998474121094)" clip-path="none"/>
<path d="M 445.6904 291.0888 L 443.2894 289.9317 L 443.0291 290.4717 L 442.6819 291.706 L 442.8844 298.9958 L 442.1901 300.6929 L 441.3223 301.4258 L 439.9048 300.7701 L 438.7477 301.8115 L 436.4334 298.4558 L 432.0364 296.7587 L 430.4743 297.0673 L 430.0693 304.4729 L 426.0772 301.7729 L 422.9819 301.8115 L 421.7091 300.8472 L 420.4073 298.6873 L 418.903 298.3787 L 416.3284 296.4502 L 415.0556 297.3373 L 413.9853 299.613 L 413.9274 300.7701 L 412.9438 300.3458 L 410.3982 297.1444 L 409.0964 296.7202 L 405.6829 302.4672 L 405.9722 305.2829 L 400.7073 317.8955 L 400.4758 320.1326 L 401.4883 325.2625 L 401.2858 326.4582 L 399.8973 326.4582 L 397.8723 323.7197 L 396.5127 322.794 L 393.186 322.4083 L 390.1774 326.9596 L 394.6613 333.131 L 395.182 337.0266 L 396.7441 338.3766 L 397.4962 343.7765 L 395.7316 350.0635 L 396.0498 351.8378 L 397.178 353.1492 L 398.6244 352.4549 L 401.3726 353.3035 L 404.2654 352.7249 L 405.6829 354.5763 L 406.6375 354.962 L 408.2286 353.4192 L 408.1418 351.375 L 410.6296 351.1821 L 413.4067 349.5621 L 414.8531 351.2978 L 416.7045 351.5678 L 416.9359 355.5406 L 417.6881 356.3506 L 420.5519 356.042 L 421.5644 354.5378 L 422.2876 350.7578 L 422.8951 349.6778 L 426.7425 347.6336 L 427.1475 343.8151 L 429.4618 342.1565 L 432.9332 340.8837 L 433.1646 342.118 L 432.6149 343.8922 L 433.6564 349.6778 L 433.3671 352.9949 L 433.6853 354.8849 L 436.4334 357.8163 L 441.2355 360.1305 L 444.4176 365.4147 L 445.3722 365.5304 L 446.5872 364.2576 L 447.5418 364.0647 L 449.3064 365.1447 L 453.2407 365.5304 L 452.286 362.5219 L 453.7903 358.3563 L 453.6167 354.2678 L 455.1788 347.055 L 454.4267 346.2065 L 454.8317 342.658 L 454.4556 337.9909 L 445.7483 335.6381 L 440.4255 332.0896 L 441.3223 329.8525 L 440.6859 324.3368 L 440.8016 319.0526 L 439.1238 314.347 L 438.1113 312.8813 L 438.2559 312.2642 L 439.2105 311.9556 L 441.1777 312.3413 L 444.0994 311.8785 L 444.9962 312.3799 L 445.5458 309.1399 L 447.3683 305.2057 L 448.8147 305.0514 L 450.4636 303.7786 L 450.2321 298.4944 L 449.075 297.5687 L 448.3518 293.6731 L 447.5708 292.0145 L 445.6904 291.0888 Z" fill="rgba(244,246,247,1)" fill-opacity="1" stroke="#000000" stroke-width="0.5882352776180919" paint-order="fill" stroke-opacity="1" stroke-dasharray="" stroke-linecap="butt" stroke-linejoin="miter" stroke-miterlimit="10" transform="matrix(0.8500000238418579,0,0,0.8500000238418579,59.999778747558594,39.974998474121094)" clip-path="none"/><defs><filter id="f1" x="-100%" y="-100%" width="1000%" height="1000%"><feOffset result="offOut" in="SourceGraphic" dx="-9.799999999999999" dy="9.799999999999999"></feOffset><feColorMatrix result="matrixOut" in="offOut" type="matrix" values="0.2 0 0 0 0 0 0.2 0 0 0 0 0 0.2 0 0 0 0 0 1 0"></feColorMatrix><feGaussianBlur result="blurOut" in="matrixOut" stdDeviation="8"></feGaussianBlur><feBlend in="SourceGraphic" in2="blurOut" mode="normal"></feBlend></filter></defs>
<text x="643" y="519.33333333333" font-size="11"></text>
</svg>